<?xml version="1.0" standalone="no"?>
<!DOCTYPE svg PUBLIC "-//W3C//DTD SVG 20010904//EN"
 "http://www.w3.org/TR/2001/REC-SVG-20010904/DTD/svg10.dtd">
<svg version="1.0" xmlns="http://www.w3.org/2000/svg"
 width="572.000000pt" height="2375.000000pt" viewBox="0 0 572.000000 2375.000000"
 preserveAspectRatio="xMidYMid meet">

<g transform="translate(0.000000,2375.000000) scale(0.100000,-0.100000)"
fill="#000000" stroke="none">
<path d="M640 22710 l0 -400 400 0 400 0 0 400 0 400 -400 0 -400 0 0 -400z
m580 100 c0 -19 -7 -20 -180 -20 -173 0 -180 1 -180 20 0 19 7 20 180 20 173
0 180 -1 180 -20z m0 -100 c0 -19 -7 -20 -180 -20 -173 0 -180 1 -180 20 0 19
7 20 180 20 173 0 180 -1 180 -20z m0 -100 c0 -19 -7 -20 -180 -20 -173 0
-180 1 -180 20 0 19 7 20 180 20 173 0 180 -1 180 -20z"/>
<path d="M3817 22879 c-10 -6 -22 -22 -27 -35 -7 -16 -17 -24 -34 -24 -32 0
-36 -15 -36 -121 0 -131 -2 -129 130 -129 132 0 130 -2 130 129 0 106 -4 121
-36 121 -16 0 -28 9 -38 29 -21 40 -53 51 -89 30z m47 -25 c28 -11 18 -34 -14
-34 -30 0 -43 23 -17 33 6 3 13 6 14 6 1 1 8 -2 17 -5z m-74 -84 c0 -11 7 -20
15 -20 8 0 15 9 15 20 0 16 7 20 30 20 23 0 30 -4 30 -20 0 -11 7 -20 15 -20
8 0 15 9 15 20 0 13 7 20 20 20 20 0 21 -5 18 -92 l-3 -93 -95 0 -95 0 -3 93
c-3 87 -2 92 18 92 13 0 20 -7 20 -20z"/>
<path d="M3119 22855 c-14 -8 -32 -28 -39 -44 -24 -58 5 -112 111 -210 l56
-50 76 75 c87 86 109 131 87 184 -13 31 -54 60 -85 60 -10 0 -32 -7 -51 -16
-30 -14 -35 -14 -56 0 -28 20 -64 20 -99 1z m74 -26 c12 -7 26 -18 30 -25 10
-18 36 -18 43 0 3 8 19 20 35 26 53 22 101 -28 79 -84 -11 -29 -117 -146 -132
-146 -17 0 -116 100 -128 129 -17 43 -9 83 20 98 31 15 27 15 53 2z"/>
<path d="M4368 22850 c-106 -57 -115 -201 -17 -270 95 -68 233 -4 246 114 14
121 -122 214 -229 156z m151 -39 c38 -28 58 -87 44 -133 -10 -35 -11 -36 -85
-17 -38 10 -54 9 -95 -4 -26 -9 -52 -12 -56 -8 -5 5 -11 26 -13 47 -14 111
112 181 205 115z m-25 -184 c27 -12 27 -13 11 -27 -10 -9 -38 -15 -65 -15 -27
0 -55 6 -65 15 -16 14 -16 15 11 27 16 7 40 12 54 12 14 0 38 -5 54 -12z"/>
<path d="M4402 22788 c-7 -7 -12 -24 -12 -38 0 -33 17 -50 50 -50 33 0 50 17
50 50 0 33 -17 50 -50 50 -14 0 -31 -5 -38 -12z m58 -38 c0 -13 -7 -20 -20
-20 -13 0 -20 7 -20 20 0 13 7 20 20 20 13 0 20 -7 20 -20z"/>
<path d="M3640 21800 l0 -500 23 -2 c12 0 33 0 45 1 34 3 52 -16 52 -55 0 -43
-18 -44 -22 -2 -2 22 -9 34 -20 36 -15 3 -18 -4 -18 -32 0 -45 -18 -48 -22 -4
-2 22 -9 34 -20 36 -17 3 -18 -11 -18 -182 l0 -186 429 0 c293 0 439 -4 462
-11 56 -19 100 -59 125 -113 54 -115 11 -240 -100 -292 l-51 -24 -432 0 -433
0 0 -160 0 -160 640 0 640 0 0 1075 0 1075 -640 0 -640 0 0 -500z m408 76 c2
-18 -2 -28 -15 -33 -10 -4 -21 -11 -24 -16 -9 -13 -29 0 -29 19 0 8 9 14 20
14 11 0 20 7 20 15 0 17 -16 20 -25 5 -9 -15 -25 -12 -25 5 0 43 73 35 78 -9z
m-300 -8 c21 -21 13 -30 -23 -24 -31 6 -35 4 -35 -14 0 -18 4 -20 35 -14 40 7
47 -7 14 -29 -13 -10 -16 -16 -8 -19 20 -7 2 -38 -21 -38 -11 0 -20 5 -20 10
0 6 8 10 17 10 12 0 8 8 -15 26 -51 43 -40 104 18 104 14 0 31 -5 38 -12z
m132 -38 l0 -50 -43 0 c-49 0 -67 13 -67 50 0 37 18 50 67 50 l43 0 0 -50z
m80 34 c0 -6 -7 -14 -15 -18 -9 -3 -15 -18 -15 -36 0 -23 -4 -30 -20 -30 -17
0 -20 7 -20 50 l0 49 35 -1 c20 -1 35 -6 35 -14z m53 -69 c1 -5 -6 -11 -15
-13 -11 -2 -18 3 -18 13 0 17 30 18 33 0z m-275 -267 c28 -28 7 -78 -33 -78
-27 0 -45 18 -45 45 0 27 18 45 45 45 12 0 26 -5 33 -12z m152 -53 c0 -37 -4
-65 -10 -65 -5 0 -10 9 -10 20 0 14 -7 20 -23 20 -29 0 -47 18 -47 45 0 30 19
45 57 45 l33 0 0 -65z m50 24 c0 -44 34 -36 38 9 5 49 22 38 22 -14 l0 -45
-37 3 c-30 2 -39 8 -47 29 -10 30 -2 64 14 54 5 -3 10 -20 10 -36z m148 29
c21 -21 13 -38 -18 -38 -16 0 -30 -5 -30 -11 0 -7 11 -9 30 -5 31 6 42 -7 14
-18 -31 -12 -55 -6 -65 18 -22 47 33 90 69 54z m-70 -225 c12 -12 13 -18 4
-21 -15 -5 -16 -44 0 -60 9 -9 7 -12 -10 -12 -21 0 -29 16 -33 65 -3 49 9 58
39 28z m152 -17 c0 -19 -4 -38 -10 -41 -6 -4 -10 10 -10 34 0 23 5 41 10 41 6
0 10 -15 10 -34z m-322 2 c21 -21 13 -38 -18 -38 -16 0 -30 -5 -30 -11 0 -8
11 -9 31 -5 27 5 30 4 19 -9 -34 -41 -96 6 -71 54 13 23 50 28 69 9z m110 -35
c2 -26 -1 -43 -7 -43 -6 0 -11 16 -11 35 0 28 -4 35 -20 35 -16 0 -20 -7 -20
-35 0 -19 -4 -35 -10 -35 -5 0 -10 21 -10 46 l0 45 38 -3 c36 -3 37 -4 40 -45z
m163 26 c8 -16 8 -28 0 -46 -9 -20 -17 -24 -44 -21 -27 2 -33 8 -35 31 -2 16
2 35 9 43 17 21 57 17 70 -7z m49 -59 c0 -5 -4 -10 -10 -10 -5 0 -10 5 -10 10
0 6 5 10 10 10 6 0 10 -4 10 -10z"/>
<path d="M3800 21830 c0 -13 7 -20 20 -20 13 0 20 7 20 20 0 13 -7 20 -20 20
-13 0 -20 -7 -20 -20z"/>
<path d="M3687 21514 c-4 -4 -7 -16 -7 -26 0 -14 6 -19 23 -16 14 2 22 10 22
23 0 20 -25 32 -38 19z"/>
<path d="M3824 21506 c-8 -21 3 -36 27 -36 15 0 20 6 17 22 -4 27 -35 37 -44
14z"/>
<path d="M4040 21510 c0 -5 9 -10 20 -10 11 0 20 5 20 10 0 6 -9 10 -20 10
-11 0 -20 -4 -20 -10z"/>
<path d="M3800 21270 c0 -5 9 -10 20 -10 11 0 20 5 20 10 0 6 -9 10 -20 10
-11 0 -20 -4 -20 -10z"/>
<path d="M4060 21255 c0 -18 5 -25 19 -25 24 0 33 13 25 34 -10 27 -44 20 -44
-9z"/>
<path d="M890 21385 c0 -30 5 -55 10 -55 6 0 10 11 10 25 0 18 5 25 19 25 10
0 24 7 31 15 18 21 -4 45 -41 45 -28 0 -29 -1 -29 -55z m60 25 c0 -13 -7 -20
-20 -20 -13 0 -20 7 -20 20 0 13 7 20 20 20 13 0 20 -7 20 -20z"/>
<path d="M991 21383 c1 -32 4 -46 6 -30 5 34 16 34 33 2 7 -14 18 -25 23 -25
5 0 4 7 -3 15 -11 13 -11 20 0 40 16 30 0 55 -36 55 -23 0 -24 -3 -23 -57z
m52 33 c7 -18 -1 -26 -25 -26 -11 0 -18 7 -18 20 0 23 35 28 43 6z"/>
<path d="M1096 21424 c-9 -8 -16 -26 -16 -39 0 -56 71 -73 99 -24 13 24 13 29
-2 53 -20 30 -57 35 -81 10z m58 0 c24 -9 21 -71 -4 -79 -24 -8 -60 11 -60 31
0 41 27 62 64 48z"/>
<path d="M1213 21414 c-15 -24 -15 -29 -2 -53 17 -31 59 -39 83 -16 27 27 20
45 -16 44 -31 -2 -31 -2 -6 -6 24 -4 27 -7 18 -24 -21 -38 -75 -13 -68 32 4
32 33 47 58 31 27 -16 35 -15 20 3 -20 25 -67 19 -87 -11z"/>
<path d="M1330 21385 c0 -30 5 -55 10 -55 6 0 10 12 10 28 l1 27 24 -30 c26
-31 33 -28 15 6 -6 11 -7 19 -1 19 15 0 22 32 10 46 -6 8 -24 14 -40 14 -28 0
-29 -1 -29 -55z m60 25 c0 -13 -7 -20 -20 -20 -13 0 -20 7 -20 20 0 13 7 20
20 20 13 0 20 -7 20 -20z"/>
<path d="M1446 21393 c-18 -53 -20 -77 -5 -50 13 22 45 22 58 0 5 -10 12 -16
14 -13 7 7 -33 110 -43 110 -4 0 -15 -21 -24 -47z m40 -20 c-2 -3 -11 -3 -19
-1 -11 2 -12 9 -5 28 l10 25 9 -24 c5 -13 7 -26 5 -28z"/>
<path d="M1541 21383 c2 -55 2 -56 8 -18 l7 40 16 -37 c10 -21 19 -38 22 -38
3 0 13 17 23 38 l17 37 6 -40 c7 -38 7 -37 9 18 0 31 -3 57 -8 57 -4 0 -16
-21 -26 -47 l-18 -46 -24 46 c-13 26 -26 47 -28 47 -3 0 -4 -26 -4 -57z"/>
<path d="M1703 21423 c-3 -10 -12 -33 -20 -52 -7 -19 -11 -36 -8 -39 5 -6 35
61 35 80 0 19 19 -4 23 -27 3 -22 26 -65 27 -51 0 17 -35 106 -43 106 -4 0
-10 -8 -14 -17z"/>
<path d="M1796 21424 c-26 -26 -19 -59 19 -92 24 -20 32 -32 23 -35 -9 -4 -9
-6 -1 -6 16 -1 26 16 13 24 -6 4 -1 14 12 26 l23 19 -27 -11 c-34 -15 -56 -6
-64 26 -11 45 40 74 76 43 12 -11 12 -10 1 5 -17 21 -54 22 -75 1z"/>
<path d="M1940 21435 c0 -2 -9 -27 -20 -55 -11 -27 -16 -50 -11 -50 5 0 14 20
21 46 13 44 26 48 33 9 3 -23 26 -65 27 -50 0 19 -34 105 -42 105 -4 0 -8 -2
-8 -5z"/>
<path d="M2027 21422 c-33 -36 -8 -92 40 -92 25 0 53 30 53 57 0 46 -62 69
-93 35z m74 -13 c16 -31 -3 -69 -36 -69 -17 0 -29 8 -36 24 -15 32 4 66 36 66
15 0 29 -9 36 -21z"/>
<path d="M3640 20690 l0 -211 438 3 c420 3 439 4 476 24 85 44 131 143 108
232 -16 58 -56 109 -108 136 -37 20 -56 21 -476 24 l-437 3 -1 -211z m370 27
c0 -12 -34 -47 -45 -47 -3 0 -5 7 -5 15 0 8 7 15 15 15 8 0 15 7 15 15 0 18
-26 20 -33 3 -4 -8 -6 -7 -6 4 -1 9 5 18 12 21 16 6 47 -11 47 -26z m-321 -5
c-12 -5 -11 -52 1 -52 6 0 10 -5 10 -11 0 -26 -26 1 -30 32 -8 46 -2 62 15 46
7 -7 9 -13 4 -15z m41 -22 c0 -23 4 -30 20 -30 16 0 20 7 20 30 0 17 5 30 11
30 6 0 9 -16 7 -37 -2 -30 -7 -37 -28 -40 -15 -2 -30 3 -37 14 -15 20 -17 63
-3 63 6 0 10 -13 10 -30z m108 19 c-11 -6 -18 -22 -18 -40 0 -18 -4 -28 -10
-24 -5 3 -10 22 -10 41 0 31 3 34 28 34 23 -1 24 -2 10 -11z m92 -26 c0 -35
-2 -38 -30 -40 -34 -2 -55 25 -45 57 5 15 15 20 41 20 33 0 34 -1 34 -37z m50
-27 c0 -3 -4 -8 -10 -11 -5 -3 -10 -1 -10 4 0 6 5 11 10 11 6 0 10 -2 10 -4z"/>
<path d="M3877 20703 c-15 -14 -7 -43 12 -43 24 0 33 13 25 34 -6 16 -25 21
-37 9z"/>
<path d="M890 20825 c0 -30 5 -55 10 -55 6 0 10 11 10 24 0 18 7 26 23 29 l22
4 -22 2 c-16 1 -23 7 -23 20 0 12 8 21 23 24 16 3 13 5 -10 6 l-33 1 0 -55z"/>
<path d="M970 20825 c0 -30 5 -55 10 -55 6 0 10 12 10 28 l1 27 24 -30 c26
-31 33 -28 15 6 -6 11 -7 19 -1 19 15 0 22 32 10 46 -6 8 -24 14 -40 14 -28 0
-29 -1 -29 -55z m60 25 c0 -13 -7 -20 -20 -20 -13 0 -20 7 -20 20 0 13 7 20
20 20 13 0 20 -7 20 -20z"/>
<path d="M1082 20868 c-20 -20 -15 -76 9 -88 52 -28 106 28 74 76 -17 26 -62
33 -83 12z m68 -12 c28 -35 -11 -93 -47 -70 -36 22 -23 84 17 84 10 0 23 -7
30 -14z"/>
<path d="M1202 20823 l1 -58 6 44 6 45 28 -42 c15 -23 29 -42 32 -42 3 0 4 26
3 58 l-1 57 -6 -44 -6 -45 -28 42 c-15 23 -29 42 -32 42 -3 0 -4 -26 -3 -57z"/>
<path d="M1313 20873 c13 -3 17 -15 17 -54 0 -27 5 -49 10 -49 6 0 10 22 10
49 0 39 4 51 18 54 9 3 -3 5 -28 5 -25 0 -37 -2 -27 -5z"/>
<path d="M1490 20825 c0 -54 1 -55 28 -54 23 2 24 2 5 6 -14 3 -23 12 -23 23
0 11 9 20 23 23 l22 4 -22 2 c-16 1 -23 7 -23 20 0 12 8 21 23 24 19 4 18 4
-5 6 -27 1 -28 0 -28 -54z"/>
<path d="M1572 20823 l1 -58 6 44 6 45 28 -42 c15 -23 29 -42 32 -42 3 0 4 26
3 58 l-1 57 -6 -44 -6 -45 -28 42 c-15 23 -29 42 -32 42 -3 0 -4 -26 -3 -57z"/>
<path d="M1680 20825 c0 -54 1 -55 28 -55 33 0 62 27 62 57 0 27 -31 53 -63
53 -26 0 -27 -2 -27 -55z m71 24 c16 -31 -3 -69 -36 -69 -23 0 -25 4 -25 45 0
41 2 45 25 45 15 0 29 -8 36 -21z"/>
<path d="M1413 20823 c9 -2 23 -2 30 0 6 3 -1 5 -18 5 -16 0 -22 -2 -12 -5z"/>
<path d="M890 20265 c0 -30 5 -55 10 -55 6 0 10 25 10 55 0 30 -4 55 -10 55
-5 0 -10 -25 -10 -55z"/>
<path d="M930 20266 c0 -63 19 -78 22 -16 0 22 1 45 2 52 1 6 -5 13 -11 16
-10 3 -13 -12 -13 -52z"/>
<path d="M1010 20278 l-1 -43 -24 30 c-14 17 -25 27 -25 22 0 -12 44 -77 53
-77 4 0 7 25 7 55 0 30 -2 55 -5 55 -3 0 -5 -19 -5 -42z"/>
<path d="M1040 20265 c0 -30 5 -55 10 -55 6 0 10 11 10 24 0 18 7 26 23 29
l22 4 -22 2 c-35 2 -31 39 5 44 22 3 20 4 -10 6 l-38 1 0 -55z"/>
<path d="M1131 20263 c1 -32 4 -46 6 -30 5 34 16 34 33 2 7 -14 18 -25 23 -25
5 0 4 7 -3 15 -11 13 -11 20 0 40 16 30 0 55 -36 55 -23 0 -24 -3 -23 -57z
m52 33 c7 -18 -1 -26 -25 -26 -11 0 -18 7 -18 20 0 23 35 28 43 6z"/>
<path d="M1237 20269 c-10 -28 -16 -53 -13 -56 3 -3 8 2 12 11 3 9 16 16 29
16 13 0 26 -7 29 -16 4 -9 9 -15 11 -12 7 6 -31 102 -41 105 -5 2 -17 -20 -27
-48z m43 -6 c0 -7 -7 -13 -15 -13 -16 0 -19 9 -9 35 5 13 8 14 15 3 5 -7 9
-19 9 -25z"/>
<path d="M1330 20265 l0 -55 33 1 c29 1 30 2 7 8 -33 9 -40 41 -8 42 l23 0
-22 9 c-32 13 -29 38 5 43 25 4 25 4 -5 6 l-33 1 0 -55z"/>
<path d="M1414 20306 c-8 -20 3 -35 32 -46 13 -5 24 -14 24 -20 0 -18 -29 -23
-47 -9 -14 12 -16 12 -11 -1 3 -9 17 -15 34 -15 40 0 48 40 11 54 -14 6 -28
15 -32 20 -10 17 23 25 42 10 14 -12 16 -12 11 1 -6 21 -57 26 -64 6z"/>
<path d="M1512 20313 c13 -3 18 -18 21 -56 l3 -52 2 52 c2 40 6 53 20 56 9 3
-1 5 -23 5 -22 0 -32 -2 -23 -5z"/>
<path d="M1590 20265 c0 -30 5 -55 10 -55 6 0 10 12 10 28 l1 27 24 -30 c26
-31 33 -28 15 6 -6 11 -7 19 -1 19 15 0 22 32 10 46 -6 8 -24 14 -40 14 -28 0
-29 -1 -29 -55z m60 25 c0 -13 -7 -20 -20 -20 -13 0 -20 7 -20 20 0 13 7 20
20 20 13 0 20 -7 20 -20z"/>
<path d="M1694 20276 c1 -56 22 -79 54 -60 12 8 17 25 18 60 l2 49 -7 -50 c-5
-42 -10 -51 -28 -53 -23 -3 -27 5 -37 73 -2 17 -3 8 -2 -19z"/>
<path d="M1802 20313 c13 -3 18 -18 21 -56 l3 -52 2 52 c2 40 6 53 20 56 9 3
-1 5 -23 5 -22 0 -32 -2 -23 -5z"/>
<path d="M1892 20273 c-2 -49 0 -53 25 -59 35 -9 53 16 52 70 l-2 41 -6 -43
c-14 -81 -57 -85 -64 -5 l-3 48 -2 -52z"/>
<path d="M1991 20263 c0 -32 3 -51 6 -43 2 8 7 22 10 30 3 11 10 8 29 -15 24
-31 32 -28 14 5 -7 13 -6 21 5 30 23 19 1 50 -35 50 -30 0 -30 0 -29 -57z m59
27 c0 -15 -7 -20 -25 -20 -18 0 -25 5 -25 20 0 15 7 20 25 20 18 0 25 -5 25
-20z"/>
<path d="M2107 20273 c-9 -27 -17 -52 -17 -58 1 -15 24 27 27 50 7 39 21 35
32 -9 6 -25 16 -46 21 -46 5 0 1 23 -10 50 -11 28 -20 53 -20 55 0 3 -4 5 -8
5 -4 0 -16 -21 -25 -47z"/>
<path d="M890 19705 c0 -54 1 -55 29 -55 35 0 59 24 42 43 -8 10 -7 17 1 25
17 17 -9 42 -43 42 -28 0 -29 -1 -29 -55z m58 28 c-5 -26 -38 -29 -38 -4 0 15
6 21 21 21 14 0 19 -5 17 -17z m5 -39 c11 -11 -5 -34 -24 -34 -12 0 -19 7 -19
20 0 19 28 28 43 14z"/>
<path d="M992 19719 c-2 -54 15 -75 53 -65 23 6 25 10 23 59 l-2 52 -3 -48
c-7 -79 -58 -74 -66 6 l-4 42 -1 -46z"/>
<path d="M1107 19753 c-17 -16 -5 -42 23 -52 17 -5 30 -15 30 -21 0 -17 -29
-23 -45 -10 -10 8 -15 9 -15 2 0 -17 19 -24 46 -18 35 9 32 44 -6 57 -41 15
-41 44 0 35 19 -3 29 -2 25 4 -7 11 -48 14 -58 3z"/>
<path d="M1190 19705 c0 -30 5 -55 10 -55 6 0 10 25 10 55 0 30 -4 55 -10 55
-5 0 -10 -25 -10 -55z"/>
<path d="M1230 19706 c0 -63 19 -78 22 -16 0 22 1 45 2 52 1 6 -5 13 -11 16
-10 3 -13 -12 -13 -52z"/>
<path d="M1310 19718 l-1 -43 -24 30 c-14 17 -25 27 -25 22 0 -12 44 -77 53
-77 4 0 7 25 7 55 0 30 -2 55 -5 55 -3 0 -5 -19 -5 -42z"/>
<path d="M1340 19743 c0 -10 3 -35 6 -55 6 -33 10 -38 33 -37 23 2 24 2 4 6
-14 3 -23 12 -23 23 0 11 9 20 23 23 l22 4 -22 2 c-16 1 -23 7 -23 20 0 12 8
21 23 24 16 3 13 5 -10 6 -25 1 -33 -3 -33 -16z"/>
<path d="M1437 19753 c-16 -15 -6 -43 18 -49 16 -4 25 -13 25 -25 0 -22 -20
-25 -39 -6 -11 10 -13 9 -9 -3 6 -21 42 -24 57 -6 15 18 7 34 -25 46 -33 13
-33 44 1 38 13 -3 22 -1 19 3 -6 11 -38 12 -47 2z"/>
<path d="M1527 19753 c-17 -16 -5 -42 23 -52 17 -5 30 -15 30 -21 0 -17 -29
-23 -45 -10 -10 8 -15 9 -15 1 0 -13 45 -26 59 -16 22 13 11 43 -20 54 -37 13
-34 37 5 34 14 -1 24 2 21 8 -7 10 -48 12 -58 2z"/>
<path d="M3870 17995 l0 -1245 35 0 35 0 0 1245 0 1245 -35 0 -35 0 0 -1245z"/>
<path d="M890 19145 c0 -54 1 -55 28 -55 39 0 65 21 65 53 0 38 -20 57 -59 57
l-34 0 0 -55z m68 33 c27 -27 7 -78 -30 -78 -15 0 -18 8 -18 45 0 37 3 45 18
45 10 0 23 -5 30 -12z"/>
<path d="M1010 19145 c0 -54 1 -55 28 -54 23 2 24 2 5 6 -14 3 -23 12 -23 23
0 11 9 20 23 23 l22 4 -22 2 c-16 1 -23 7 -23 20 0 12 8 21 23 24 19 4 18 4
-5 6 -27 1 -28 0 -28 -54z"/>
<path d="M1097 19193 c-17 -16 -5 -42 23 -51 21 -8 28 -16 24 -26 -7 -19 -25
-20 -43 -3 -11 10 -13 9 -9 -3 6 -20 35 -25 53 -10 23 19 18 36 -15 50 -38 16
-41 45 -5 38 14 -3 25 -1 25 3 0 10 -44 12 -53 2z"/>
<path d="M1180 19145 c0 -30 5 -55 10 -55 6 0 10 25 10 55 0 30 -4 55 -10 55
-5 0 -10 -25 -10 -55z"/>
<path d="M1232 19188 c-17 -17 -15 -64 4 -82 28 -28 73 -14 87 27 5 14 1 17
-26 16 -23 -1 -26 -3 -9 -6 26 -5 28 -16 7 -33 -26 -21 -67 3 -63 37 4 35 31
52 58 35 27 -16 35 -15 20 3 -15 18 -61 20 -78 3z"/>
<path d="M1352 19143 l1 -58 6 44 6 45 28 -42 c15 -23 29 -42 32 -42 3 0 4 26
3 58 l-1 57 -6 -44 -6 -45 -28 42 c-15 23 -29 42 -32 42 -3 0 -4 -26 -3 -57z"/>
<path d="M1516 19191 c-4 -5 -3 -16 0 -25 3 -9 1 -16 -6 -16 -6 0 -10 -11 -8
-27 3 -26 6 -28 50 -29 36 -1 45 2 38 11 -6 7 -8 21 -4 31 5 15 4 16 -5 4 -8
-12 -14 -11 -35 9 -28 27 -25 45 6 35 14 -4 18 -2 14 5 -9 13 -43 15 -50 2z
m38 -82 c-7 -12 -31 -11 -39 1 -4 6 -4 18 -1 27 6 14 8 14 26 -2 11 -10 17
-22 14 -26z"/>
<path d="M1662 19159 c-2 -54 15 -75 53 -65 23 6 25 10 23 59 l-2 52 -3 -48
c-7 -79 -58 -74 -66 6 l-4 42 -1 -46z"/>
<path d="M1783 19175 c13 -26 13 -33 0 -60 l-14 -30 19 24 20 24 12 -22 c16
-31 24 -20 8 13 -9 21 -9 32 0 47 18 28 15 37 -4 11 l-15 -22 -20 22 -20 23
14 -30z"/>
<path d="M4073 19063 c11 -3 17 -14 17 -34 0 -26 -3 -29 -21 -24 -16 5 -20 3
-17 -6 3 -8 13 -14 24 -14 15 0 20 8 22 43 3 38 1 42 -20 41 -17 -1 -18 -3 -5
-6z"/>
<path d="M4333 19054 c-3 -9 3 -21 18 -32 l23 -16 -24 -7 c-22 -6 -23 -7 -7
-14 12 -5 24 -2 34 8 14 14 13 17 -6 33 -24 21 -28 39 -6 30 8 -3 15 -1 15 4
0 16 -40 11 -47 -6z"/>
<path d="M4731 19048 c-5 -13 -12 -34 -16 -48 l-8 -25 23 20 c19 17 23 18 33
5 14 -19 63 -24 73 -8 4 6 0 16 -9 23 -22 16 -22 26 0 18 11 -4 14 -3 9 5 -9
14 -33 16 -41 3 -3 -5 2 -16 10 -24 20 -21 19 -26 -5 -20 -11 3 -24 20 -30 39
-13 39 -27 43 -39 12z m24 -18 c3 -5 1 -10 -4 -10 -6 0 -11 5 -11 10 0 6 2 10
4 10 3 0 8 -4 11 -10z"/>
<path d="M4637 19054 c-7 -8 2 -55 13 -67 4 -4 6 8 6 27 -2 37 -8 50 -19 40z"/>
<path d="M4124 19038 c-5 -8 -2 -9 9 -5 9 3 19 2 22 -2 2 -5 -5 -11 -16 -14
-29 -8 -19 -31 14 -34 25 -2 26 1 21 25 -4 15 -9 30 -11 35 -6 11 -31 8 -39
-5z m36 -32 c0 -3 -4 -8 -10 -11 -5 -3 -10 -1 -10 4 0 6 5 11 10 11 6 0 10 -2
10 -4z"/>
<path d="M4190 19043 c0 -20 19 -63 29 -63 10 0 34 60 27 67 -2 3 -10 -5 -16
-18 l-12 -22 -14 24 c-7 13 -13 19 -14 12z"/>
<path d="M4264 19038 c-5 -8 -2 -9 9 -5 10 3 17 2 17 -3 0 -6 -7 -10 -15 -10
-8 0 -15 -9 -15 -19 0 -15 7 -19 30 -19 27 1 29 4 23 27 -3 14 -8 29 -10 34
-6 11 -31 8 -39 -5z m36 -32 c0 -11 -19 -15 -25 -6 -3 5 1 10 9 10 9 0 16 -2
16 -4z"/>
<path d="M4404 19036 c-10 -26 1 -51 24 -54 12 -2 22 2 22 8 0 6 -4 9 -8 6
-14 -9 -35 11 -29 28 4 10 12 13 23 9 12 -4 15 -3 10 5 -10 17 -36 15 -42 -2z"/>
<path d="M4467 19016 c3 -17 6 -32 7 -32 1 -1 8 12 16 30 14 30 14 31 -7 32
-20 2 -21 -2 -16 -30z"/>
<path d="M4520 19016 c0 -20 5 -36 10 -36 6 0 10 13 10 29 0 17 -4 33 -10 36
-6 4 -10 -8 -10 -29z"/>
<path d="M4554 19033 c3 -8 6 -29 6 -46 0 -18 4 -27 8 -21 4 7 16 13 27 15 15
3 20 12 20 34 0 27 -3 30 -33 32 -26 1 -32 -2 -28 -14z m50 -12 c3 -5 0 -14
-8 -20 -10 -9 -15 -8 -19 3 -9 22 15 37 27 17z"/>
<path d="M4854 19038 c-4 -6 0 -16 9 -23 22 -16 22 -26 0 -18 -11 4 -14 3 -9
-5 4 -7 13 -12 21 -12 22 0 29 22 12 35 -22 16 -22 26 0 18 11 -4 14 -3 9 5
-9 15 -33 15 -42 0z"/>
<path d="M4911 19014 c0 -11 3 -14 6 -6 3 7 2 16 -1 19 -3 4 -6 -2 -5 -13z"/>
<path d="M860 18815 l0 -55 34 0 c39 0 62 21 51 47 -5 10 -7 28 -6 41 2 14 -3
22 -13 22 -10 0 -13 -6 -10 -15 4 -11 0 -15 -16 -15 -16 0 -20 4 -16 15 3 9 0
15 -9 15 -11 0 -15 -13 -15 -55z m58 -18 c2 -12 -3 -17 -17 -17 -12 0 -21 6
-21 13 0 31 32 34 38 4z"/>
<path d="M1196 18861 c-3 -4 -2 -28 2 -52 5 -30 13 -45 25 -47 9 -2 17 1 17 7
0 6 -4 11 -10 11 -14 0 -12 48 2 52 9 3 8 9 -4 21 -19 19 -25 21 -32 8z"/>
<path d="M1371 18843 c3 -66 16 -86 154 -224 l140 -141 3 72 3 71 -97 102 -97
102 97 3 c88 2 96 4 96 22 0 19 -8 20 -150 20 l-150 0 1 -27z"/>
<path d="M2060 18855 c0 -18 55 -21 65 -4 11 17 -3 23 -21 8 -13 -11 -18 -11
-21 -1 -6 17 -23 15 -23 -3z"/>
<path d="M2146 18855 c7 -17 5 -16 62 -19 46 -2 78 18 47 30 -9 4 -21 2 -28
-5 -14 -14 -57 -15 -57 -1 0 6 -7 10 -15 10 -9 0 -12 -6 -9 -15z"/>
<path d="M2280 18855 c0 -8 7 -15 15 -15 9 0 12 6 9 15 -4 8 -10 15 -15 15 -5
0 -9 -7 -9 -15z"/>
<path d="M2316 18855 c4 -8 15 -15 26 -15 10 0 17 -4 13 -10 -3 -5 -12 -7 -20
-3 -8 3 -15 0 -15 -7 0 -6 11 -10 28 -8 21 2 28 9 30 31 3 28 -6 35 -25 16 -8
-8 -13 -8 -17 0 -11 17 -26 13 -20 -4z"/>
<path d="M2400 18855 c0 -8 5 -15 10 -15 6 0 10 7 10 15 0 8 -4 15 -10 15 -5
0 -10 -7 -10 -15z"/>
<path d="M2440 18856 c0 -9 7 -16 16 -16 9 0 14 5 12 12 -6 18 -28 21 -28 4z"/>
<path d="M708 18849 c-21 -12 -24 -59 -6 -77 7 -7 20 -12 30 -12 10 0 18 -4
18 -10 0 -5 -12 -10 -27 -10 -20 0 -24 -3 -16 -11 18 -18 62 -2 67 24 16 77
15 97 -4 97 -10 0 -24 2 -32 5 -7 2 -21 0 -30 -6z m45 -31 c6 -19 -3 -38 -18
-38 -18 0 -28 17 -21 35 7 18 33 20 39 3z"/>
<path d="M979 18841 c-20 -16 -22 -23 -14 -47 11 -32 55 -45 81 -23 24 20 18
64 -11 77 -32 15 -29 15 -56 -7z m56 -36 c0 -13 -8 -21 -22 -23 -19 -3 -23 1
-23 23 0 22 4 26 23 23 14 -2 22 -10 22 -23z"/>
<path d="M1104 18850 c-30 -11 -37 -39 -19 -66 18 -28 56 -32 79 -8 19 19 20
35 4 56 -18 21 -39 27 -64 18z m44 -43 c4 -20 -25 -34 -40 -19 -15 15 -1 44
19 40 10 -2 19 -11 21 -21z"/>
<path d="M644 18819 c3 -17 6 -38 6 -45 0 -8 7 -14 15 -14 11 0 13 8 9 33 -9
48 -12 57 -25 57 -8 0 -9 -11 -5 -31z"/>
<path d="M4879 18543 c-75 -58 -102 -123 -118 -283 -7 -72 -24 -151 -54 -250
-67 -221 -67 -220 -68 -335 0 -96 5 -140 27 -230 33 -134 78 -225 124 -247 19
-10 42 -17 50 -16 8 1 23 -2 32 -6 9 -4 25 -6 35 -3 17 4 16 4 -2 11 -68 25
-80 36 -107 109 -67 176 -66 268 5 493 14 45 28 110 32 145 11 112 15 128 50
174 44 57 46 94 7 127 -72 60 -69 222 4 275 18 13 25 26 22 42 l-3 23 -36 -29z"/>
<path d="M2590 18235 c-16 -32 -19 -53 -14 -79 3 -20 10 -33 15 -30 5 3 7 9 4
14 -10 17 14 60 35 60 17 0 20 -7 20 -41 0 -22 4 -38 9 -34 5 3 12 1 15 -3 6
-10 -52 -67 -102 -102 -18 -12 -31 -25 -27 -28 3 -3 -9 -20 -26 -38 -18 -18
-26 -34 -20 -38 5 -4 16 1 23 10 29 37 81 85 86 79 3 -3 0 -11 -6 -17 -24 -24
-11 -29 22 -9 53 33 63 24 15 -12 -80 -61 -155 -89 -166 -61 -7 18 9 42 87
128 33 37 59 71 56 73 -6 6 -57 -33 -103 -79 -31 -32 -32 -32 -27 -8 6 25 12
44 32 90 18 42 20 90 5 90 -22 0 -50 -18 -57 -35 -4 -11 -2 -14 6 -9 13 8 3
-11 -18 -36 -20 -24 -37 -73 -21 -64 6 4 -4 -11 -23 -34 -102 -122 -108 -134
-64 -154 20 -9 24 -17 19 -36 -4 -16 0 -31 11 -44 16 -17 17 -18 1 -12 -19 7
-23 -6 -6 -23 8 -8 6 -19 -5 -41 -28 -53 -6 -72 85 -72 42 0 48 -3 77 -44 18
-24 32 -47 32 -50 0 -12 59 -130 60 -118 0 7 4 11 9 8 5 -3 12 -41 16 -83 4
-43 11 -86 16 -95 15 -27 44 -22 74 13 26 32 27 52 1 30 -19 -16 -30 3 -46 84
-12 57 -71 187 -112 247 l-19 28 26 10 c49 18 75 22 75 11 0 -6 -11 -13 -25
-17 -29 -7 -34 -44 -10 -64 8 -7 15 -19 15 -26 0 -8 4 -14 9 -14 6 0 15 27 22
60 7 36 17 60 24 60 14 0 14 -1 -10 -98 -15 -58 -12 -132 4 -132 3 0 31 50 62
112 l55 111 16 -63 c15 -62 15 -62 -3 -39 -10 13 -19 29 -19 34 -1 16 -30 -27
-30 -44 0 -9 14 -43 30 -76 16 -33 30 -65 30 -72 0 -7 6 -10 14 -7 9 3 25 -11
44 -38 31 -44 76 -90 57 -58 -5 8 -21 34 -37 58 -16 23 -27 48 -25 55 3 7 -8
36 -24 65 -28 51 -30 70 -3 35 10 -13 9 -5 -2 22 -10 23 -17 72 -18 117 -1 68
2 80 22 98 20 19 22 19 22 3 0 -10 -7 -27 -15 -37 -36 -48 -6 -163 64 -246 26
-31 30 -33 37 -17 4 12 -6 44 -32 95 -29 57 -38 88 -37 120 2 51 19 75 47 70
19 -4 21 0 20 36 -1 23 -4 52 -8 66 -5 19 1 33 22 57 20 22 33 53 42 95 7 35
17 67 21 73 5 5 9 17 9 28 0 11 4 15 11 11 8 -4 9 1 4 15 -4 14 -1 31 10 47
21 33 5 39 -66 21 -37 -10 -58 -21 -65 -36 -10 -19 -13 -20 -24 -6 -7 8 -18
15 -24 15 -6 0 -16 10 -21 21 -6 12 -25 28 -44 35 -28 12 -32 12 -22 1 21 -26
-1 -26 -58 1 -31 15 -58 30 -61 33 -3 3 -22 9 -42 12 -36 5 -38 4 -58 -38z
m145 -36 c25 -12 48 -25 51 -30 6 -10 -87 28 -100 42 -16 15 1 11 49 -12z m25
-42 c19 -10 62 -38 95 -61 33 -24 68 -45 78 -49 9 -3 17 -13 17 -22 0 -8 5
-15 10 -15 6 0 10 9 10 19 0 11 5 23 10 26 14 9 13 -48 -1 -62 -9 -9 -18 -4
-36 18 -28 33 -50 40 -31 9 14 -22 3 -39 -14 -22 -15 15 -19 42 -7 42 21 0 -4
19 -95 74 -119 70 -146 104 -36 43z m-57 -15 c-2 -6 3 -9 11 -6 16 6 31 -12
17 -20 -11 -7 -61 13 -61 24 0 12 13 21 24 16 6 -2 10 -8 9 -14z m21 -57 c3
-8 12 -15 21 -15 17 0 21 -16 5 -22 -6 -2 -6 -14 -1 -33 5 -16 10 -22 10 -12
1 9 5 17 10 17 5 0 7 9 4 21 -6 20 -5 21 25 5 42 -21 46 -31 27 -63 -15 -27
-16 -27 -10 -3 6 24 5 24 -10 -2 -9 -16 -20 -28 -25 -28 -6 0 -10 -7 -10 -16
0 -8 -5 -12 -11 -8 -6 3 -32 -14 -57 -39 -58 -56 -119 -87 -170 -87 -47 0 -92
31 -92 63 0 20 3 19 26 -10 24 -31 74 -47 74 -24 0 12 87 61 107 61 13 0 13
-3 3 -15 -27 -32 22 -2 55 33 31 34 31 36 21 83 -6 26 -14 51 -19 55 -10 10
-9 54 2 54 5 0 11 -7 15 -15z m131 -26 c11 -17 -1 -21 -15 -4 -8 9 -8 15 -2
15 6 0 14 -5 17 -11z m53 -95 c40 -48 47 -84 18 -84 -15 0 -25 9 -32 27 l-9
27 -23 -34 -22 -35 6 35 5 35 -18 -27 c-15 -24 -33 -37 -33 -24 0 12 34 84 48
99 21 24 26 22 60 -19z m-484 -16 c-4 -13 -6 -52 -5 -87 2 -48 -1 -62 -11 -59
-22 8 -16 143 7 160 16 12 17 10 9 -14z m191 -28 c-8 -13 -80 -50 -97 -50 -7
0 10 13 37 29 54 31 70 37 60 21z m-140 -151 c27 -16 39 -19 48 -10 6 6 20 11
32 10 11 0 15 -3 8 -5 -17 -7 -4 -34 16 -34 9 0 35 9 58 20 25 11 45 15 48 9
4 -5 15 -9 26 -9 16 0 19 -4 13 -22 -9 -31 -14 -35 -23 -19 -11 16 -40 17
-116 1 -68 -14 -181 -19 -198 -8 -14 9 -15 9 53 13 30 1 57 3 60 4 3 1 -16 13
-42 27 -47 24 -62 44 -34 44 8 0 31 -10 51 -21z m300 -39 c-18 -34 -19 -54 -4
-44 6 3 3 -9 -6 -27 -29 -57 -32 -52 -7 10 4 10 1 12 -8 6 -10 -6 -12 1 -6 36
7 42 22 63 38 53 4 -3 1 -18 -7 -34z m-108 -312 c-3 -8 -6 -5 -6 6 -1 11 2 17
5 13 3 -3 4 -12 1 -19z m17 -83 c5 -22 4 -26 -4 -15 -5 8 -10 24 -10 34 0 26
6 18 14 -19z"/>
<path d="M2775 17979 c-4 -6 -5 -12 -2 -15 2 -3 7 2 10 11 7 17 1 20 -8 4z"/>
<path d="M3071 18044 c0 -11 3 -14 6 -6 3 7 2 16 -1 19 -3 4 -6 -2 -5 -13z"/>
<path d="M2985 17889 c-4 -6 -5 -12 -2 -15 2 -3 7 2 10 11 7 17 1 20 -8 4z"/>
<path d="M860 17853 c-109 -4 -126 -8 -133 -33 -5 -18 -1 -21 21 -19 56 4 72
0 72 -21 0 -18 -7 -20 -62 -22 -35 0 -73 0 -85 1 -17 1 -20 -3 -16 -19 5 -19
14 -20 147 -22 219 -4 223 -3 246 17 26 24 27 76 0 100 -21 19 -64 24 -190 18z
m68 -53 c1 -2 8 -3 14 -4 7 0 14 -9 16 -18 3 -16 -5 -18 -62 -18 -63 0 -66 1
-66 25 0 23 3 24 48 20 26 -2 48 -4 50 -5z"/>
<path d="M4901 17466 c-15 -59 -13 -142 4 -186 12 -32 14 -25 14 98 1 72 -1
132 -3 132 -2 0 -9 -20 -15 -44z"/>
<path d="M1202 17388 c-17 -17 -15 -28 4 -28 32 0 6 -25 -32 -30 -30 -4 -39
-9 -39 -25 0 -12 10 -23 28 -29 54 -19 106 50 77 104 -12 23 -21 25 -38 8z"/>
<path d="M2611 17372 c0 -6 -31 -41 -68 -77 -37 -36 -63 -65 -58 -65 5 0 -2
-11 -15 -25 -13 -14 -20 -28 -15 -32 4 -5 10 -2 12 5 8 21 54 72 66 72 8 0 7
-4 -1 -12 -20 -20 -13 -32 8 -13 11 10 30 23 42 29 23 11 43 82 34 116 -2 9
-4 10 -5 2z"/>
<path d="M1071 17344 c0 -11 3 -14 6 -6 3 7 2 16 -1 19 -3 4 -6 -2 -5 -13z"/>
<path d="M2977 17299 c5 -17 3 -20 -7 -14 -10 6 -12 4 -7 -9 4 -10 7 -20 7
-22 0 -13 31 -1 40 15 13 25 13 44 0 36 -6 -4 -17 -2 -25 5 -11 9 -12 7 -8
-11z"/>
<path d="M1090 17286 c0 -2 8 -10 18 -17 15 -13 16 -12 3 4 -13 16 -21 21 -21
13z"/>
<path d="M2453 16890 c0 -25 2 -35 4 -22 2 12 2 32 0 45 -2 12 -4 2 -4 -23z"/>
<path d="M4453 16880 c0 -25 2 -35 4 -22 2 12 2 32 0 45 -2 12 -4 2 -4 -23z"/>
<path d="M2423 16890 c-11 -16 -10 -18 2 -14 8 4 15 12 15 20 0 19 -3 18 -17
-6z"/>
<path d="M2474 16880 c1 -15 8 -26 19 -28 14 -3 17 3 16 30 -2 30 -2 31 -6 6
-5 -34 -20 -37 -26 -5 -3 19 -4 19 -3 -3z"/>
<path d="M2524 16896 c-3 -8 -4 -23 -2 -33 3 -11 6 -6 9 15 6 34 2 42 -7 18z"/>
<path d="M2567 16884 c-16 -22 -16 -25 -2 -30 21 -9 27 -1 23 29 l-3 25 -18
-24z m13 -14 c0 -5 -5 -10 -11 -10 -5 0 -7 5 -4 10 3 6 8 10 11 10 2 0 4 -4 4
-10z"/>
<path d="M4190 16892 c0 -5 7 -9 15 -9 8 0 12 4 9 9 -3 4 -9 8 -15 8 -5 0 -9
-4 -9 -8z"/>
<path d="M4424 16891 c3 -5 -1 -11 -9 -15 -21 -8 -19 -38 3 -34 19 4 31 58 12
58 -6 0 -9 -4 -6 -9z m6 -31 c0 -5 -4 -10 -10 -10 -5 0 -10 5 -10 10 0 6 5 10
10 10 6 0 10 -4 10 -10z"/>
<path d="M4471 16884 c0 -11 3 -14 6 -6 3 7 2 16 -1 19 -3 4 -6 -2 -5 -13z"/>
<path d="M4501 16876 c-1 -21 -5 -27 -16 -22 -8 3 -15 1 -15 -4 0 -16 30 -12
36 4 3 8 4 23 1 33 -3 11 -5 7 -6 -11z"/>
<path d="M4522 16870 c0 -19 2 -27 5 -17 2 9 2 25 0 35 -3 9 -5 1 -5 -18z"/>
<path d="M4576 16875 c4 -26 -10 -35 -19 -12 -3 7 -6 4 -6 -6 -2 -31 34 -16
37 16 2 15 -1 27 -7 27 -5 0 -8 -11 -5 -25z"/>
<path d="M2418 16853 c7 -3 16 -2 19 1 4 3 -2 6 -13 5 -11 0 -14 -3 -6 -6z"/>
<path d="M4257 16853 c-4 -3 -7 -11 -7 -17 0 -6 5 -5 12 2 6 6 9 14 7 17 -3 3
-9 2 -12 -2z"/>
<path d="M2900 15460 l0 -840 810 0 810 0 0 840 0 840 -810 0 -810 0 0 -840z
m946 58 l112 -248 -47 0 -48 0 -24 60 -24 60 -101 0 -101 0 -26 -60 -26 -60
-47 0 c-33 0 -45 4 -41 13 3 6 49 109 102 227 54 118 106 235 117 260 20 45
20 45 31 20 6 -14 62 -136 123 -272z"/>
<path d="M3687 15568 c-46 -103 -48 -98 27 -98 74 0 72 -9 23 100 l-24 55 -26
-57z"/>
<path d="M1085 15698 c-2 -7 -13 -37 -24 -65 -19 -52 -19 -53 0 -53 10 0 19 5
19 10 0 6 11 10 24 10 14 0 28 -4 31 -10 3 -5 13 -10 20 -10 12 0 10 13 -9 63
-22 60 -50 85 -61 55z m35 -60 c0 -5 -6 -8 -14 -8 -9 0 -12 7 -9 21 4 16 8 17
14 7 5 -7 9 -16 9 -20z"/>
<path d="M1550 15645 c0 -51 3 -65 15 -65 12 0 15 14 15 65 0 51 -3 65 -15 65
-12 0 -15 -14 -15 -65z"/>
<path d="M1830 15701 c0 -6 5 -13 10 -16 6 -3 10 -28 10 -56 0 -37 4 -49 15
-49 12 0 15 14 15 65 0 63 -1 65 -25 65 -14 0 -25 -4 -25 -9z"/>
<path d="M1900 15695 c0 -8 5 -15 10 -15 6 0 10 -22 10 -50 0 -38 4 -50 15
-50 12 0 15 14 15 65 0 63 -1 65 -25 65 -16 0 -25 -6 -25 -15z"/>
<path d="M1180 15629 c0 -37 4 -49 15 -49 10 0 15 10 15 29 0 29 21 57 33 44
4 -3 7 -21 7 -40 0 -23 5 -33 16 -33 12 0 14 10 12 48 l-3 47 -47 2 -48 2 0
-50z"/>
<path d="M1311 15667 c-29 -29 0 -94 38 -84 15 3 21 1 21 -10 0 -12 -8 -14
-37 -8 l-38 7 19 -21 c21 -23 56 -27 74 -9 7 7 12 39 12 74 l0 62 -39 0 c-21
0 -43 -4 -50 -11z m59 -36 c0 -23 -9 -31 -26 -24 -17 6 -18 40 -1 46 17 6 27
-1 27 -22z"/>
<path d="M1430 15635 c0 -25 3 -46 8 -46 4 -1 26 -3 50 -4 l42 -3 0 49 c0 37
-4 49 -15 49 -10 0 -15 -10 -15 -29 0 -29 -21 -57 -33 -44 -4 3 -7 21 -7 40 0
23 -5 33 -15 33 -11 0 -15 -12 -15 -45z"/>
<path d="M1611 15667 c-15 -15 -14 -62 2 -75 6 -5 29 -10 50 -10 l37 0 0 48 0
48 -39 0 c-21 0 -43 -4 -50 -11z m59 -38 c0 -12 -7 -19 -20 -19 -19 0 -28 28
-14 43 11 11 34 -5 34 -24z"/>
<path d="M1720 15629 c0 -37 4 -49 15 -49 8 0 15 9 15 19 0 30 11 51 26 51 8
0 14 6 14 13 0 8 -13 13 -35 14 l-35 1 0 -49z"/>
<path d="M2022 15668 c-7 -7 -12 -24 -12 -38 0 -14 5 -31 12 -38 17 -17 53
-15 69 5 13 15 11 16 -13 10 -15 -4 -30 -3 -33 3 -4 6 6 10 24 10 37 0 44 11
25 38 -17 24 -53 29 -72 10z m53 -18 c3 -5 -3 -10 -15 -10 -12 0 -18 5 -15 10
3 6 10 10 15 10 5 0 12 -4 15 -10z"/>
<path d="M1150 15435 c0 -8 7 -15 15 -15 8 0 15 7 15 15 0 8 -7 15 -15 15 -8
0 -15 -7 -15 -15z"/>
<path d="M1057 15433 c-4 -3 -7 -33 -7 -65 0 -45 3 -58 15 -58 9 0 15 9 15 25
0 18 5 25 20 25 11 0 20 4 20 9 0 5 -9 11 -20 14 -28 7 -25 27 5 27 16 0 25 6
25 15 0 10 -10 15 -33 15 -19 0 -37 -3 -40 -7z"/>
<path d="M1390 15376 l0 -64 40 0 c32 -1 44 4 56 24 15 22 15 26 -1 50 -12 19
-23 25 -41 21 -18 -3 -24 0 -24 14 0 11 -7 19 -15 19 -12 0 -15 -14 -15 -64z
m71 -30 c-16 -19 -41 -10 -41 14 0 24 21 31 39 14 11 -10 12 -16 2 -28z"/>
<path d="M1150 15360 c0 -38 4 -50 15 -50 11 0 15 12 15 50 0 38 -4 50 -15 50
-11 0 -15 -12 -15 -50z"/>
<path d="M1200 15360 c0 -38 4 -50 15 -50 10 0 15 10 15 30 0 18 6 33 15 36
26 10 16 29 -15 31 -30 2 -30 1 -30 -47z"/>
<path d="M1284 15385 c-15 -23 -15 -27 0 -50 19 -29 57 -33 77 -8 13 15 11 16
-14 11 -15 -3 -30 -1 -33 3 -3 5 9 9 25 9 23 0 31 5 31 18 0 45 -60 57 -86 17z
m51 -5 c3 -5 -1 -10 -9 -10 -9 0 -16 5 -16 10 0 6 4 10 9 10 6 0 13 -4 16 -10z"/>
<path d="M1521 15397 c-15 -15 -14 -62 2 -75 6 -5 29 -10 50 -10 l37 0 0 48 0
48 -39 0 c-21 0 -43 -4 -50 -11z m59 -36 c0 -23 -9 -31 -26 -24 -14 5 -19 34
-8 46 11 10 34 -5 34 -22z"/>
<path d="M1640 15396 c-10 -13 -10 -19 0 -31 7 -8 18 -15 26 -15 7 0 16 -5 20
-11 4 -8 -4 -9 -27 -4 -31 7 -32 6 -20 -9 21 -25 65 -17 69 11 3 17 -3 26 -22
33 -34 12 -34 24 0 16 19 -5 25 -3 22 6 -7 19 -53 21 -68 4z"/>
<path d="M1742 15398 c-25 -25 -6 -88 28 -88 26 0 50 10 50 22 0 6 -11 7 -24
4 -14 -3 -28 -2 -31 4 -4 6 8 10 29 10 38 0 43 8 26 41 -12 22 -59 26 -78 7z
m53 -18 c3 -5 -3 -10 -15 -10 -12 0 -18 5 -15 10 3 6 10 10 15 10 5 0 12 -4
15 -10z"/>
<path d="M1068 15099 c-21 -12 -24 -59 -6 -77 18 -18 53 -15 69 6 13 15 12 16
-3 3 -27 -20 -68 -6 -68 23 0 34 26 53 51 38 27 -17 38 -14 15 3 -23 17 -34
18 -58 4z"/>
<path d="M1790 15094 c0 -11 -6 -13 -19 -9 -16 5 -51 -16 -51 -31 0 -24 24
-44 50 -42 29 2 30 4 30 50 0 26 -2 48 -5 48 -3 0 -5 -7 -5 -16z m-10 -29 c15
-18 6 -45 -15 -45 -18 0 -30 24 -21 45 7 19 20 19 36 0z"/>
<path d="M1410 15072 c0 -42 9 -62 29 -62 12 0 13 2 3 9 -8 5 -12 21 -10 41 2
20 -2 35 -9 37 -9 3 -13 -6 -13 -25z"/>
<path d="M1171 15076 c-21 -25 -10 -61 18 -61 31 0 50 28 35 53 -15 23 -38 26
-53 8z m37 -5 c19 -11 11 -45 -11 -49 -19 -4 -32 20 -23 43 6 17 15 19 34 6z"/>
<path d="M1251 15045 c2 -33 3 -35 6 -10 3 17 9 34 13 39 13 14 38 -11 43 -42
4 -25 4 -25 6 4 1 36 -15 54 -47 51 -19 -1 -22 -7 -21 -42z"/>
<path d="M1347 15084 c-13 -14 -7 -33 13 -39 26 -8 26 -29 0 -22 -11 3 -18 1
-14 -4 7 -13 31 -11 40 2 4 7 -4 20 -17 30 -13 10 -21 21 -17 25 4 4 15 1 24
-7 15 -12 17 -12 12 1 -5 17 -30 25 -41 14z"/>
<path d="M1478 15083 c-14 -3 -18 -14 -17 -41 1 -28 3 -31 6 -12 3 14 12 33
20 43 9 9 14 16 12 16 -2 -1 -12 -3 -21 -6z"/>
<path d="M1568 15058 c-4 -46 -38 -53 -38 -9 0 17 -4 31 -10 31 -13 0 -13 -26
0 -51 7 -12 20 -18 35 -17 22 2 25 7 25 40 0 46 -8 50 -12 6z"/>
<path d="M1641 15045 c2 -33 3 -35 6 -10 3 17 9 34 13 39 13 14 38 -11 43 -42
4 -25 4 -25 6 4 1 36 -15 54 -47 51 -19 -1 -22 -7 -21 -42z"/>
<path d="M1830 15075 c-24 -29 8 -75 44 -62 30 12 14 77 -20 77 -6 0 -17 -7
-24 -15z m45 -25 c0 -16 -6 -26 -18 -28 -19 -4 -32 20 -23 44 9 25 41 13 41
-16z"/>
<path d="M1953 15055 c2 -37 4 -40 35 -43 31 -3 32 -2 31 35 l-1 38 -9 -33
c-13 -44 -42 -40 -51 8 l-6 35 1 -40z"/>
<path d="M2040 15051 c0 -23 2 -41 4 -41 8 0 12 71 4 76 -4 3 -8 -13 -8 -35z"/>
<path d="M2085 15070 c8 -9 16 -27 16 -41 1 -17 3 -14 8 11 4 22 12 35 21 35
9 0 17 -13 21 -35 l6 -35 2 38 c0 20 -2 37 -6 38 -5 1 -25 2 -46 3 -34 3 -36
1 -22 -14z"/>
<path d="M2192 15078 c-29 -29 -6 -66 41 -66 24 0 27 4 27 33 0 25 -5 34 -22
39 -31 8 -32 8 -46 -6z m43 -29 c0 -15 -7 -25 -18 -27 -22 -4 -33 24 -17 43
18 21 35 13 35 -16z"/>
<path d="M1600 15045 c0 -19 5 -35 10 -35 6 0 10 16 10 35 0 19 -4 35 -10 35
-5 0 -10 -16 -10 -35z"/>
<path d="M1243 14850 c0 -30 2 -43 4 -27 2 15 2 39 0 55 -2 15 -4 2 -4 -28z"/>
<path d="M2360 14884 c0 -10 -6 -13 -17 -10 -33 10 -58 -24 -41 -57 6 -11 19
-17 38 -15 29 2 30 4 30 50 0 26 -2 48 -5 48 -3 0 -5 -7 -5 -16z m-12 -23 c19
-11 11 -45 -11 -49 -19 -4 -32 20 -23 43 6 17 15 19 34 6z"/>
<path d="M1922 14848 c2 -23 9 -43 16 -46 11 -3 11 -1 0 17 -10 16 -10 25 -1
40 10 16 9 20 -3 25 -12 5 -15 -2 -12 -36z"/>
<path d="M1060 14866 c-6 -8 -10 -25 -8 -38 2 -18 10 -23 36 -24 30 -1 32 1
32 31 0 43 -35 60 -60 31z m45 -26 c0 -29 -32 -41 -41 -16 -9 24 4 48 23 44
12 -2 18 -12 18 -28z"/>
<path d="M1193 14865 c24 -17 18 -50 -8 -50 -15 0 -20 7 -20 28 1 15 -3 27 -7
27 -4 0 -7 -24 -7 -52 1 -29 4 -43 6 -30 2 12 9 20 14 17 18 -12 49 6 49 29 0
23 -17 46 -34 46 -6 0 -3 -7 7 -15z"/>
<path d="M1322 14871 c-20 -12 -11 -65 12 -69 10 -2 22 0 28 6 6 6 0 8 -16 5
-22 -5 -26 -2 -26 20 0 32 16 43 37 25 14 -11 15 -11 11 2 -6 18 -28 23 -46
11z"/>
<path d="M1402 14868 c-24 -24 -6 -69 28 -67 9 0 6 4 -7 9 -26 11 -30 32 -8
50 20 17 35 4 35 -31 0 -16 5 -29 10 -29 6 0 10 15 10 34 0 26 -5 35 -22 40
-31 8 -32 8 -46 -6z"/>
<path d="M1504 14872 c-24 -16 -23 -42 2 -69 19 -20 22 -29 12 -36 -10 -6 -9
-8 2 -4 8 2 15 10 15 18 0 8 4 19 7 25 5 7 -1 10 -17 6 -21 -4 -25 -1 -25 21
0 32 16 43 37 25 14 -11 15 -11 11 2 -5 17 -28 24 -44 12z"/>
<path d="M1582 14868 c-29 -29 -6 -66 41 -66 24 0 27 4 27 33 0 25 -5 34 -22
39 -31 8 -32 8 -46 -6z m43 -29 c0 -15 -7 -25 -18 -27 -22 -4 -33 24 -17 43
18 21 35 13 35 -16z"/>
<path d="M1676 14865 c-19 -20 -20 -26 -3 -49 26 -36 84 4 61 42 -15 23 -38
26 -58 7z m44 -10 c15 -18 6 -45 -15 -45 -18 0 -30 24 -21 45 7 19 20 19 36 0z"/>
<path d="M1830 14841 c0 -23 2 -41 4 -41 8 0 12 71 4 76 -4 3 -8 -13 -8 -35z"/>
<path d="M1873 14863 c8 -10 17 -29 20 -43 4 -22 4 -22 6 6 1 29 -14 54 -33
54 -5 0 -2 -8 7 -17z"/>
<path d="M1980 14866 c-27 -34 12 -88 43 -57 7 7 4 8 -10 5 -12 -3 -24 -1 -27
5 -5 7 4 11 23 11 32 0 41 16 19 38 -16 16 -33 15 -48 -2z m34 -2 c25 -9 19
-24 -9 -24 -24 0 -32 10 -18 23 8 8 8 8 27 1z"/>
<path d="M2065 14863 c-18 -18 -19 -24 -1 -48 8 -12 20 -16 35 -12 24 6 28 -5
6 -23 -12 -10 -18 -10 -30 0 -9 8 -15 8 -15 2 0 -17 39 -25 55 -12 9 8 15 30
15 59 0 42 -2 46 -25 47 -14 1 -32 -5 -40 -13z m44 -7 c15 -18 3 -46 -19 -46
-10 0 -21 7 -24 16 -6 16 9 44 24 44 4 0 13 -6 19 -14z"/>
<path d="M2168 14873 c-14 -3 -18 -14 -17 -41 1 -28 3 -31 6 -12 3 14 12 33
20 43 9 9 14 16 12 16 -2 -1 -12 -3 -21 -6z"/>
<path d="M2212 14868 c-24 -24 -6 -69 28 -67 9 0 6 4 -7 9 -26 11 -30 32 -8
50 20 17 35 4 35 -31 0 -16 5 -29 10 -29 6 0 10 15 10 34 0 26 -5 35 -22 40
-31 8 -32 8 -46 -6z"/>
<path d="M2402 14868 c-29 -29 -6 -66 41 -66 24 0 27 4 27 33 0 25 -5 34 -22
39 -31 8 -32 8 -46 -6z m43 -29 c0 -17 -6 -24 -20 -24 -23 0 -33 34 -13 46 20
13 33 5 33 -22z"/>
<path d="M1283 14835 c0 -22 2 -30 4 -17 2 12 2 30 0 40 -3 9 -5 -1 -4 -23z"/>
<path d="M1803 14835 c0 -22 2 -30 4 -17 2 12 2 30 0 40 -3 9 -5 -1 -4 -23z"/>
<path d="M1918 14686 c-9 -8 -12 -28 -10 -55 5 -51 9 -49 14 4 2 22 7 46 12
53 10 16 1 15 -16 -2z"/>
<path d="M1630 14640 c0 -27 5 -50 10 -50 6 0 10 23 10 50 0 28 -4 50 -10 50
-5 0 -10 -22 -10 -50z"/>
<path d="M1767 14673 c-2 -5 -2 -25 0 -45 4 -27 10 -38 22 -38 13 0 13 2 2 9
-9 6 -12 20 -9 40 4 30 -5 51 -15 34z"/>
<path d="M1060 14656 c-27 -33 12 -88 41 -59 6 6 1 9 -13 9 -18 -1 -23 4 -23
24 0 20 4 25 23 23 13 -2 21 1 17 7 -9 14 -31 12 -45 -4z"/>
<path d="M1146 14657 c-36 -26 4 -84 42 -61 23 15 26 38 7 58 -20 19 -26 20
-49 3z m43 -11 c15 -18 3 -46 -19 -46 -10 0 -21 7 -24 16 -6 16 9 44 24 44 4
0 13 -6 19 -14z"/>
<path d="M1243 14663 c-8 -3 -12 -20 -12 -41 l2 -37 6 35 c4 22 12 35 21 35 9
0 17 -13 20 -35 l6 -35 6 35 c7 43 -11 59 -49 43z"/>
<path d="M1318 14661 c8 -5 18 -24 22 -42 l8 -34 1 31 c1 30 -14 54 -33 54 -6
0 -5 -4 2 -9z"/>
<path d="M1415 14653 c-18 -17 -18 -19 -5 -44 8 -13 20 -19 40 -17 27 2 30 6
30 38 0 30 -3 35 -25 36 -14 1 -32 -5 -40 -13z m44 -7 c15 -18 3 -46 -19 -46
-10 0 -21 7 -24 16 -6 16 9 44 24 44 4 0 13 -6 19 -14z"/>
<path d="M1541 14605 c1 -33 4 -48 6 -34 3 21 8 25 28 22 26 -6 49 25 39 51
-7 18 -7 18 -46 20 -28 2 -28 1 -27 -59z m54 24 c0 -15 -7 -25 -18 -27 -22 -4
-33 24 -17 43 18 21 35 13 35 -16z"/>
<path d="M1675 14653 c-18 -17 -18 -19 -5 -44 8 -13 20 -19 40 -17 27 2 30 6
30 38 0 30 -3 35 -25 36 -14 1 -32 -5 -40 -13z m45 -8 c15 -18 6 -45 -15 -45
-18 0 -30 24 -21 45 7 19 20 19 36 0z"/>
<path d="M1822 14658 c-29 -29 -6 -66 41 -66 24 0 27 4 27 33 0 25 -5 34 -22
39 -31 8 -32 8 -46 -6z m43 -29 c0 -15 -7 -25 -18 -27 -22 -4 -33 24 -17 43
18 21 35 13 35 -16z"/>
<path d="M1968 14659 c-33 -19 -15 -69 24 -69 15 0 38 27 38 44 0 7 -31 36
-38 36 -4 0 -15 -5 -24 -11z m40 -32 c3 -22 -1 -27 -18 -27 -26 0 -37 25 -20
45 18 22 34 13 38 -18z"/>
<path d="M2058 14663 c-13 -3 -18 -15 -18 -39 0 -19 5 -34 10 -34 6 0 10 13
10 28 0 15 5 33 12 40 7 7 10 11 8 11 -3 -1 -13 -3 -22 -6z"/>
<path d="M2113 14663 c-8 -3 -12 -20 -12 -41 l2 -37 6 35 c4 22 12 35 21 35 9
0 17 -13 20 -35 l6 -35 6 35 c7 43 -11 59 -49 43z"/>
<path d="M2193 14659 c10 -6 18 -23 18 -42 2 -31 2 -31 6 -4 5 29 -11 57 -31
57 -6 0 -3 -5 7 -11z"/>
<path d="M2250 14655 c-6 -7 -10 -24 -8 -37 2 -18 10 -23 36 -24 30 -1 32 1
32 35 0 31 -3 37 -24 39 -13 1 -29 -5 -36 -13z m38 -4 c19 -11 11 -45 -11 -49
-19 -4 -32 20 -23 43 6 17 15 19 34 6z"/>
<path d="M1110 14466 c0 -9 -7 -12 -18 -9 -24 6 -44 -19 -40 -49 2 -18 10 -23
36 -24 32 -1 32 -1 32 48 0 26 -2 48 -5 48 -3 0 -5 -6 -5 -14z m-5 -46 c0 -29
-32 -41 -41 -16 -9 24 4 48 23 44 12 -2 18 -12 18 -28z"/>
<path d="M1286 14464 c-19 -18 -21 -55 -4 -72 25 -25 78 -8 78 25 0 8 -11 12
-27 12 -25 -2 -25 -2 -5 -6 26 -5 25 -26 -2 -31 -39 -8 -61 43 -30 69 12 10
20 10 35 1 26 -16 34 -15 19 3 -16 19 -44 19 -64 -1z"/>
<path d="M1663 14430 c0 -30 2 -43 4 -27 2 15 2 39 0 55 -2 15 -4 2 -4 -28z"/>
<path d="M1156 14447 c-36 -26 4 -84 42 -61 23 15 26 38 7 58 -20 19 -26 20
-49 3z m43 -11 c15 -18 3 -46 -19 -46 -10 0 -21 7 -24 16 -6 16 9 44 24 44 4
0 13 -6 19 -14z"/>
<path d="M1392 14448 c-15 -15 -16 -55 -1 -63 21 -14 59 5 59 28 0 24 -17 47
-35 47 -6 0 -16 -5 -23 -12z m43 -28 c0 -16 -6 -26 -18 -28 -19 -4 -32 20 -23
44 9 25 41 13 41 -16z"/>
<path d="M1482 14448 c-15 -15 -16 -55 -1 -63 21 -14 59 5 59 28 0 24 -17 47
-35 47 -6 0 -16 -5 -23 -12z m36 -7 c19 -11 11 -45 -11 -49 -19 -4 -32 20 -23
43 6 17 15 19 34 6z"/>
<path d="M1570 14445 c-6 -7 -10 -24 -8 -37 2 -18 9 -23 31 -23 15 1 27 -5 27
-12 0 -19 -18 -25 -42 -12 -22 11 -22 11 -5 -7 28 -30 51 -7 55 52 3 46 1 50
-21 52 -14 1 -30 -5 -37 -13z m38 -4 c19 -11 11 -45 -11 -49 -19 -4 -32 20
-23 43 6 17 15 19 34 6z"/>
<path d="M1700 14446 c-27 -34 12 -88 43 -57 7 7 4 8 -10 5 -12 -3 -24 -1 -27
5 -5 7 2 11 18 11 30 0 42 16 26 35 -16 19 -34 19 -50 1z m38 -14 c2 -7 -6
-12 -17 -12 -21 0 -27 11 -14 24 9 9 26 2 31 -12z"/>
<path d="M1762 14148 c-6 -6 -12 -18 -12 -25 0 -7 -8 -13 -18 -13 -33 0 -42
-22 -42 -101 0 -113 -4 -109 110 -109 114 0 110 -4 110 109 0 78 -9 101 -40
101 -8 0 -20 10 -25 23 -11 25 -63 35 -83 15z m58 -23 c11 -13 8 -15 -20 -15
-28 0 -31 2 -20 15 7 8 16 15 20 15 4 0 13 -7 20 -15z m-70 -60 c0 -8 5 -15
10 -15 6 0 10 7 10 15 0 10 10 15 30 15 20 0 30 -5 30 -15 0 -8 5 -15 10 -15
6 0 10 7 10 15 0 8 7 15 15 15 12 0 15 -16 15 -80 l0 -80 -80 0 -80 0 0 80 c0
64 3 80 15 80 8 0 15 -7 15 -15z"/>
<path d="M1176 14129 c-19 -15 -26 -30 -26 -56 0 -30 10 -45 65 -102 l65 -66
65 66 c54 56 65 72 65 101 0 23 -8 42 -23 56 -26 25 -45 27 -82 10 -21 -9 -31
-9 -46 0 -27 17 -53 15 -83 -9z m86 -26 c17 -15 19 -15 36 0 26 24 69 22 82
-4 16 -29 -1 -66 -56 -120 l-44 -43 -44 43 c-55 54 -72 91 -56 120 13 26 56
28 82 4z"/>
<path d="M2670 12675 c-26 -32 13 -81 48 -59 34 22 22 74 -18 74 -10 0 -23 -7
-30 -15z"/>
<path d="M1532 12297 l-152 -152 0 -81 0 -80 153 -153 152 -153 3 83 3 83
-108 108 c-59 59 -105 110 -102 112 2 3 50 52 107 109 l102 105 0 86 c0 47 -1
86 -3 86 -1 0 -71 -69 -155 -153z"/>
<path d="M3527 12282 l-147 -147 0 -80 0 -80 150 -150 150 -149 0 75 0 74
-110 110 c-60 60 -110 114 -110 120 0 6 50 59 110 120 l110 109 0 73 c0 40 -1
73 -3 73 -1 0 -69 -66 -150 -148z"/>
<path d="M2121 12268 c-5 -13 -16 -40 -25 -62 -20 -47 -20 -46 -1 -46 8 0 15
7 15 15 0 9 9 15 25 15 14 0 28 -7 31 -15 4 -8 12 -15 20 -15 15 0 18 12 7 24
-5 4 -15 28 -24 54 -18 53 -35 64 -48 30z m29 -44 c0 -8 -6 -14 -14 -14 -9 0
-12 7 -9 20 6 22 23 18 23 -6z"/>
<path d="M2516 12281 c-4 -5 -2 -12 4 -16 5 -3 10 -28 10 -56 0 -54 17 -68 22
-17 2 22 9 34 21 36 14 3 17 -4 17 -32 0 -25 5 -36 15 -36 11 0 13 8 9 33 -10
55 -13 60 -39 55 -18 -4 -25 0 -27 15 -3 23 -23 34 -32 18z"/>
<path d="M2786 12281 c-4 -5 -2 -12 4 -16 5 -3 10 -28 10 -56 0 -27 5 -49 10
-49 6 0 10 11 10 25 0 14 5 25 10 25 6 0 16 -11 22 -25 6 -14 17 -25 25 -25
17 0 16 5 -4 36 -15 23 -15 28 0 60 21 43 6 44 -25 2 l-23 -33 -5 29 c-5 30
-23 45 -34 27z"/>
<path d="M3016 12266 c-14 -23 -10 -106 5 -106 5 0 9 15 9 34 0 19 6 37 13 40
9 5 9 7 -1 12 -15 7 -6 24 14 24 10 0 14 -14 14 -55 0 -30 5 -55 10 -55 6 0
10 9 10 20 0 11 4 20 9 20 5 0 13 -9 16 -20 3 -11 13 -20 21 -20 17 0 18 12 2
28 -9 9 -9 18 0 37 9 20 9 25 -2 25 -8 0 -16 -7 -20 -15 -10 -27 -26 -16 -26
19 0 32 -2 35 -31 34 -20 -1 -35 -9 -43 -22z"/>
<path d="M751 12258 c-5 -13 -12 -34 -16 -48 l-8 -25 23 20 c19 17 23 18 33 5
14 -19 63 -24 73 -8 4 6 0 16 -9 23 -22 16 -22 26 0 18 11 -4 14 -3 9 5 -9 14
-33 16 -41 3 -3 -5 2 -16 10 -24 20 -21 19 -26 -5 -20 -11 3 -24 20 -30 39
-13 39 -27 43 -39 12z m24 -18 c3 -5 1 -10 -4 -10 -6 0 -11 5 -11 10 0 6 2 10
4 10 3 0 8 -4 11 -10z"/>
<path d="M657 12264 c-7 -8 2 -55 13 -67 4 -4 6 8 6 27 -2 37 -8 50 -19 40z"/>
<path d="M1058 12258 c-7 -20 3 -56 16 -61 9 -4 12 6 11 31 -3 36 -19 55 -27
30z"/>
<path d="M4062 12228 c3 -39 6 -43 31 -46 15 -2 27 2 27 8 0 7 -8 9 -20 5 -18
-6 -20 -2 -20 34 0 23 -5 41 -11 41 -6 0 -9 -17 -7 -42z"/>
<path d="M4210 12261 c0 -5 -9 -11 -21 -14 -16 -4 -20 -12 -17 -34 2 -23 8
-29 33 -31 30 -3 30 -3 27 43 -2 25 -8 45 -13 45 -5 0 -9 -4 -9 -9z m0 -52 c0
-24 -23 -21 -28 4 -2 10 3 17 12 17 10 0 16 -9 16 -21z"/>
<path d="M874 12248 c-4 -6 0 -16 9 -23 22 -16 22 -26 0 -18 -11 4 -14 3 -9
-5 4 -7 13 -12 21 -12 22 0 29 22 12 35 -22 16 -22 26 0 18 11 -4 14 -3 9 5
-9 15 -33 15 -42 0z"/>
<path d="M940 12246 c-24 -30 18 -74 43 -46 10 10 8 12 -5 7 -10 -3 -20 -2
-23 3 -4 6 3 10 15 10 15 0 20 5 18 17 -4 23 -31 28 -48 9z m30 -6 c0 -5 -5
-10 -11 -10 -5 0 -7 5 -4 10 3 6 8 10 11 10 2 0 4 -4 4 -10z"/>
<path d="M1007 12227 c7 -39 13 -48 13 -19 0 11 5 24 10 27 16 10 12 21 -10
22 -16 1 -18 -3 -13 -30z"/>
<path d="M1107 12228 c6 -35 11 -44 17 -37 7 8 -6 69 -15 69 -5 0 -6 -15 -2
-32z"/>
<path d="M1145 12235 c10 -46 22 -50 40 -15 9 17 14 34 12 37 -3 2 -11 -5 -17
-18 l-12 -22 -15 24 -14 24 6 -30z"/>
<path d="M1211 12241 c-7 -13 -6 -23 3 -36 17 -24 50 -15 54 14 6 39 -39 56
-57 22z m49 -16 c0 -16 -27 -27 -36 -14 -3 5 -3 16 0 24 6 17 36 9 36 -10z"/>
<path d="M2214 12234 c3 -9 6 -38 6 -65 0 -27 5 -49 10 -49 6 0 10 9 10 20 0
15 7 20 25 20 33 0 52 38 36 69 -15 27 -97 32 -87 5z m66 -29 c0 -18 -5 -25
-20 -25 -15 0 -20 7 -20 25 0 18 5 25 20 25 15 0 20 -7 20 -25z"/>
<path d="M2330 12239 c0 -6 8 -8 19 -4 33 10 33 -12 0 -24 -47 -16 -36 -45 18
-48 42 -2 42 -2 37 30 -3 18 -7 38 -10 45 -4 15 -64 16 -64 1z m40 -54 c-7 -8
-16 -12 -21 -9 -13 8 -1 24 18 24 13 0 13 -3 3 -15z"/>
<path d="M2432 12238 c-7 -7 -12 -21 -12 -33 0 -29 19 -45 51 -45 40 0 45 18
7 22 -25 2 -33 8 -33 23 0 15 7 20 28 20 15 -1 27 5 27 12 0 16 -52 17 -68 1z"/>
<path d="M2641 12228 c-13 -34 2 -63 34 -66 15 -2 32 1 38 7 8 8 2 11 -21 11
-18 0 -32 5 -32 10 0 6 14 10 30 10 17 0 30 4 30 9 0 45 -64 60 -79 19z m54 2
c3 -5 -3 -10 -15 -10 -12 0 -18 5 -15 10 3 6 10 10 15 10 5 0 12 -4 15 -10z"/>
<path d="M2910 12239 c0 -6 6 -9 13 -6 8 3 19 2 26 -3 9 -5 3 -11 -19 -18 -48
-17 -37 -46 18 -49 36 -2 42 1 38 15 -2 9 -7 29 -10 45 -5 22 -12 27 -36 27
-17 0 -30 -5 -30 -11z m40 -54 c-7 -8 -16 -12 -21 -9 -13 8 -1 24 18 24 13 0
13 -3 3 -15z"/>
<path d="M3170 12239 c0 -6 9 -9 20 -6 33 9 32 -10 -1 -22 -47 -16 -36 -45 18
-49 l43 -3 -6 33 c-3 18 -7 39 -10 46 -4 15 -64 16 -64 1z m48 -51 c-6 -18
-28 -21 -28 -4 0 9 7 16 16 16 9 0 14 -5 12 -12z"/>
<path d="M4133 12236 c4 -10 7 -26 7 -37 0 -10 4 -19 8 -19 12 0 2 59 -11 67
-7 4 -8 0 -4 -11z"/>
<path d="M4262 12241 c-23 -14 -10 -56 18 -58 l25 -3 -25 12 -25 12 28 4 c29
4 33 12 15 30 -14 14 -19 15 -36 3z m23 -11 c3 -5 1 -10 -4 -10 -6 0 -11 5
-11 10 0 6 2 10 4 10 3 0 8 -4 11 -10z"/>
<path d="M4320 12213 c0 -18 5 -33 10 -33 6 0 10 11 10 25 0 14 5 25 10 25 6
0 10 4 10 8 0 4 -9 8 -20 8 -16 0 -20 -7 -20 -33z"/>
<path d="M4374 12238 c-5 -8 -2 -9 9 -5 9 3 19 2 22 -2 2 -5 -4 -11 -15 -14
-33 -8 -25 -37 10 -37 28 0 30 2 24 28 -4 15 -9 30 -11 35 -6 11 -31 8 -39 -5z
m36 -32 c0 -3 -4 -8 -10 -11 -5 -3 -10 -1 -10 4 0 6 5 11 10 11 6 0 10 -2 10
-4z"/>
<path d="M4440 12213 c0 -18 5 -33 10 -33 6 0 10 11 10 25 0 16 6 25 15 25 9
0 15 -9 15 -25 0 -14 5 -25 10 -25 12 0 13 40 2 57 -4 6 -19 10 -35 10 -24 -2
-27 -6 -27 -34z"/>
<path d="M4530 12235 c-12 -15 -11 -19 15 -65 11 -19 15 -21 15 -7 0 9 5 17
10 17 6 0 10 4 10 9 0 5 -8 8 -17 7 -10 0 -19 7 -21 17 -2 12 3 17 18 17 12 0
18 5 15 10 -9 15 -31 12 -45 -5z"/>
<path d="M4605 12240 c-3 -5 2 -10 12 -11 14 0 13 -2 -5 -10 -32 -12 -23 -33
15 -37 28 -3 30 -1 25 25 -7 37 -33 56 -47 33z m25 -40 c0 -5 -4 -10 -10 -10
-5 0 -10 5 -10 10 0 6 5 10 10 10 6 0 10 -4 10 -10z"/>
<path d="M4712 12241 c-23 -14 -10 -56 18 -58 l25 -3 -25 12 -25 12 28 4 c29
4 33 12 15 30 -14 14 -19 15 -36 3z"/>
<path d="M4775 12232 c3 -8 5 -23 6 -35 1 -20 1 -20 8 2 10 36 31 38 32 4 l1
-28 10 28 c12 34 28 35 28 2 0 -14 5 -25 10 -25 12 0 13 40 2 56 -11 17 -104
13 -97 -4z"/>
<path d="M4060 12095 c0 -43 1 -45 28 -45 15 0 33 5 40 12 28 28 1 78 -44 78
-22 0 -24 -4 -24 -45z m55 -5 c0 -16 -6 -26 -17 -28 -14 -3 -18 3 -18 28 0 25
4 31 18 28 11 -2 17 -12 17 -28z"/>
<path d="M4233 12113 c-19 -7 -16 -30 5 -38 16 -7 15 -8 -3 -15 -18 -8 -17 -9
8 -9 31 -1 38 23 10 34 -17 7 -17 8 1 14 15 6 16 9 5 13 -8 3 -20 3 -26 1z"/>
<path d="M4154 12096 c-10 -27 4 -46 33 -45 24 2 25 2 6 6 -29 6 -30 23 -2 23
27 0 19 24 -9 28 -13 2 -25 -3 -28 -12z"/>
<path d="M4288 12080 c2 -16 7 -30 11 -30 4 0 6 14 3 30 -2 17 -7 30 -11 30
-4 0 -6 -13 -3 -30z"/>
<path d="M4324 12095 c-9 -23 3 -45 26 -45 13 0 18 -4 15 -11 -4 -6 -13 -8
-21 -5 -8 3 -14 1 -14 -5 0 -6 10 -9 23 -7 18 2 23 10 25 41 4 41 22 52 22 12
0 -31 17 -33 22 -3 5 32 28 35 28 4 0 -14 5 -26 11 -26 6 0 9 12 7 28 -3 26
-5 27 -71 30 -53 2 -68 0 -73 -13z m41 -15 c0 -7 -6 -15 -12 -17 -8 -3 -13 4
-13 17 0 13 5 20 13 18 6 -3 12 -11 12 -18z"/>
<path d="M2253 12093 c-25 -10 -14 -52 17 -68 35 -18 30 -40 -7 -30 -18 4 -24
2 -21 -7 7 -20 59 -16 72 5 9 15 7 22 -12 37 -12 10 -28 20 -35 23 -9 4 -9 7
0 17 9 10 15 10 26 2 18 -15 30 -3 16 15 -12 13 -33 16 -56 6z"/>
<path d="M2535 12090 c-3 -5 -1 -10 4 -10 6 0 11 5 11 10 0 6 -2 10 -4 10 -3
0 -8 -4 -11 -10z"/>
<path d="M2850 12091 c0 -6 5 -13 10 -16 6 -3 10 -28 10 -56 0 -47 1 -49 29
-49 16 0 34 6 40 13 14 18 7 97 -10 108 -19 12 -79 11 -79 0z m68 -28 c-5 -25
-28 -28 -28 -4 0 12 6 21 16 21 9 0 14 -7 12 -17z m7 -53 c0 -8 -8 -16 -17
-18 -13 -2 -18 3 -18 18 0 15 5 20 18 18 9 -2 17 -10 17 -18z"/>
<path d="M3198 12073 c-5 -59 9 -103 32 -103 23 0 27 15 5 24 -18 7 -20 42 -2
50 10 5 10 7 0 12 -7 3 -13 12 -13 20 0 20 -20 17 -22 -3z"/>
<path d="M2091 12038 c-4 -12 -6 -30 -3 -40 5 -21 44 -34 69 -22 14 6 11 9
-14 12 -41 4 -43 22 -3 22 31 0 35 6 24 34 -10 25 -63 21 -73 -6z m54 2 c3 -5
-3 -10 -15 -10 -12 0 -18 5 -15 10 3 6 10 10 15 10 5 0 12 -4 15 -10z"/>
<path d="M2338 12002 c5 -63 19 -90 28 -55 4 14 15 23 33 25 23 3 26 7 26 43
l0 40 -46 2 -46 2 5 -57z m72 13 c0 -18 -5 -25 -20 -25 -15 0 -20 7 -20 25 0
18 5 25 20 25 15 0 20 -7 20 -25z"/>
<path d="M2454 12044 c3 -9 6 -29 6 -45 0 -16 5 -29 10 -29 6 0 10 14 10 30 0
18 6 33 15 36 25 10 17 21 -16 22 -23 1 -29 -3 -25 -14z"/>
<path d="M2524 12044 c3 -9 6 -29 6 -45 0 -20 5 -29 16 -29 11 0 14 5 10 16
-3 9 -6 29 -6 45 0 20 -5 29 -16 29 -11 0 -14 -5 -10 -16z"/>
<path d="M2584 12043 c3 -8 6 -28 6 -44 0 -16 5 -29 10 -29 6 0 10 16 10 35 0
28 4 35 20 35 16 0 20 -7 20 -35 0 -24 5 -35 15 -35 11 0 13 8 9 33 -10 54
-11 56 -54 55 -32 0 -40 -4 -36 -15z"/>
<path d="M2702 12048 c-28 -28 3 -84 40 -75 12 4 18 1 15 -6 -2 -7 -17 -15
-33 -18 -24 -5 -26 -7 -11 -14 10 -4 29 -3 43 3 19 9 24 19 24 51 0 22 3 46 6
55 5 13 -1 16 -33 16 -21 0 -44 -5 -51 -12z m56 -30 c-5 -34 -38 -37 -38 -4 0
20 5 26 21 26 15 0 20 -5 17 -22z"/>
<path d="M2982 12048 c-29 -29 -7 -78 34 -78 25 0 54 24 54 45 0 36 -62 59
-88 33z m58 -34 c0 -21 -4 -25 -22 -22 -15 2 -24 11 -26 26 -3 18 1 22 22 22
21 0 26 -5 26 -26z"/>
<path d="M3092 12048 c-16 -16 -15 -53 2 -67 8 -7 27 -11 43 -9 34 4 54 47 33
72 -15 19 -61 21 -78 4z m63 -33 c0 -22 -31 -33 -47 -17 -17 17 -1 44 24 40
15 -2 23 -10 23 -23z"/>
<path d="M958 11786 c-71 -25 -125 -85 -152 -166 -8 -25 -19 -92 -25 -150 -7
-72 -24 -151 -54 -250 -67 -221 -67 -220 -68 -335 0 -96 5 -140 27 -230 33
-134 78 -225 124 -247 19 -10 42 -16 50 -15 8 1 22 -3 30 -8 8 -5 71 -9 140
-9 101 0 139 4 196 21 l70 22 31 73 c64 149 83 235 83 386 0 88 -23 235 -39
257 -5 6 -10 19 -13 30 -3 11 -18 61 -32 110 -15 50 -31 137 -37 195 -12 135
-29 184 -84 247 -66 76 -157 101 -247 69z m58 -67 c22 -24 32 -135 15 -167 -8
-15 -8 -27 0 -46 24 -52 -25 -109 -78 -92 -10 4 -30 17 -44 29 -72 64 -64 230
14 277 41 25 69 25 93 -1z m117 -109 c7 -27 -29 -53 -55 -39 -18 10 -24 39
-11 52 3 4 19 7 34 7 18 0 28 -6 32 -20z m-48 -231 c85 -23 132 -97 146 -230
5 -48 23 -130 39 -181 58 -173 51 -359 -18 -497 -36 -72 -71 -84 -231 -79
-150 4 -166 13 -203 111 -67 176 -66 268 6 494 14 45 29 122 34 171 14 141 67
206 177 221 6 0 28 -4 50 -10z"/>
<path d="M957 11613 c-14 -13 -6 -33 13 -33 13 0 20 7 20 20 0 19 -20 27 -33
13z"/>
<path d="M979 10871 c-22 -22 -29 -39 -29 -68 0 -21 -9 -67 -20 -101 -23 -72
-26 -146 -8 -203 17 -60 38 -73 115 -73 56 0 68 4 84 23 40 49 50 150 23 240
-8 29 -19 78 -24 110 -16 96 -82 130 -141 72z m99 -3 c17 -17 15 -73 -3 -88
-21 -17 -45 -5 -42 22 1 17 -3 22 -15 20 -10 -2 -18 2 -18 8 0 5 6 10 14 10 8
0 18 9 21 20 7 23 25 26 43 8z m-30 -145 c12 -12 13 -18 4 -21 -6 -2 -12 -10
-12 -18 0 -25 -39 -16 -46 10 -11 45 21 62 54 29z"/>
<path d="M4598 11451 c-22 -35 -27 -88 -12 -113 6 -9 11 0 14 27 4 32 9 41 28
43 19 3 22 -1 22 -34 0 -36 0 -37 20 -19 18 17 21 17 51 -2 25 -16 28 -21 14
-26 -9 -4 -28 1 -43 11 -22 14 -25 14 -20 2 7 -20 -12 -43 -82 -99 -30 -25
-59 -48 -64 -52 -19 -17 40 -4 63 13 30 23 40 15 16 -12 -23 -26 -11 -26 26 1
16 11 34 19 40 17 13 -4 -39 -46 -96 -77 -43 -22 -105 -28 -105 -10 0 14 108
149 119 149 4 0 18 14 30 31 20 27 21 30 4 20 -11 -5 -25 -17 -33 -25 -7 -9
-17 -16 -23 -16 -6 0 -26 -14 -43 -31 -29 -28 -41 -24 -21 9 5 6 6 12 3 12 -3
0 3 23 14 50 25 62 26 90 3 90 -24 0 -53 -29 -46 -48 4 -10 2 -13 -5 -8 -7 4
-12 1 -12 -9 0 -9 -7 -27 -16 -40 -9 -13 -13 -29 -9 -35 3 -5 -4 -20 -17 -32
-22 -21 -36 -40 -80 -107 -24 -35 -23 -38 12 -56 27 -14 29 -18 19 -37 -9 -17
-8 -24 5 -34 15 -10 15 -12 1 -18 -13 -5 -13 -9 -3 -26 10 -15 10 -22 0 -32
-18 -18 -14 -56 7 -68 11 -5 42 -10 69 -10 47 0 52 -3 80 -41 17 -23 43 -70
57 -104 18 -41 32 -62 40 -59 14 6 26 -44 27 -115 0 -24 8 -51 18 -64 16 -20
20 -20 45 -7 28 15 51 48 40 58 -3 4 -10 0 -15 -8 -15 -25 -30 1 -46 81 -14
64 -85 222 -115 253 -19 20 -7 34 37 45 56 14 67 8 25 -14 -33 -17 -42 -51
-16 -61 8 -3 17 -14 20 -25 10 -32 23 -12 30 46 5 37 12 55 21 55 20 0 17 28
-4 39 -17 9 -78 1 -147 -19 -16 -5 -55 -7 -85 -5 -30 2 -59 4 -64 4 -5 1 -6 4
-3 8 4 3 27 7 52 8 24 0 47 4 50 7 3 3 -15 15 -40 27 -45 21 -59 41 -30 41 9
0 35 -10 57 -21 28 -14 43 -18 46 -10 2 6 12 11 23 11 12 0 16 -5 13 -15 -10
-25 22 -28 70 -6 26 11 48 16 51 10 4 -5 15 -9 27 -9 23 0 24 4 -16 -142 -23
-86 -25 -101 -13 -129 l13 -32 59 118 60 119 6 -46 c4 -25 10 -57 14 -70 5
-18 1 -15 -16 10 -43 65 -56 -7 -16 -90 15 -31 27 -62 27 -67 0 -6 9 -11 19
-11 12 0 29 -16 45 -42 14 -24 25 -37 26 -29 0 7 -9 29 -21 47 -11 19 -18 38
-14 44 3 5 -5 29 -19 53 -30 51 -33 65 -9 46 14 -12 16 -12 8 0 -31 52 -34
213 -4 232 25 15 28 -2 7 -37 -26 -44 -21 -93 19 -172 l28 -57 3 45 c2 25 -2
62 -9 83 -10 30 -10 48 -1 83 22 80 15 166 -16 214 -2 3 -12 -6 -23 -20 -20
-24 -20 -24 -14 -2 4 12 2 22 -3 22 -5 0 -17 -10 -26 -22 l-17 -23 6 30 c8 37
36 87 52 92 6 2 21 -5 32 -16 17 -17 21 -18 21 -6 0 9 -7 18 -15 21 -22 9 -20
45 3 38 30 -10 -28 32 -120 87 -49 29 -88 56 -88 61 0 13 89 -35 150 -81 30
-23 58 -41 62 -41 5 0 8 25 8 55 0 49 -2 55 -21 55 -11 0 -18 4 -15 9 7 11
-23 37 -59 50 -27 10 -28 10 -12 -3 35 -27 -2 -26 -60 1 -32 16 -60 31 -63 34
-3 3 -20 8 -38 11 -29 4 -35 0 -54 -31z m192 -73 c0 -4 -22 3 -50 17 -27 14
-50 27 -50 30 0 2 23 -5 50 -17 28 -11 50 -25 50 -30z m-64 -83 c4 -8 12 -15
19 -15 9 0 12 -11 8 -40 -5 -32 -3 -40 11 -40 13 0 15 7 10 36 l-5 35 31 -16
c17 -9 33 -22 36 -30 7 -17 -14 -57 -26 -50 -5 3 -15 -4 -24 -16 -8 -12 -19
-18 -24 -15 -5 3 -26 -14 -46 -38 -50 -62 -131 -100 -193 -93 -47 5 -83 32
-83 63 0 22 16 16 28 -11 12 -25 59 -45 71 -28 9 13 97 63 112 63 9 0 9 -3 0
-14 -10 -12 -8 -13 9 -9 11 3 33 21 49 40 25 30 28 40 23 81 -3 26 -8 49 -12
52 -13 9 -21 60 -10 60 6 0 13 -7 16 -15z m144 -30 c0 -12 -19 -12 -23 0 -4 9
-1 12 9 8 7 -3 14 -7 14 -8z m-440 -104 c-5 -11 -10 -50 -10 -86 0 -49 -3 -66
-12 -62 -27 8 -5 167 22 167 7 0 8 -6 0 -19z m200 -26 c0 -6 -80 -48 -109 -57
-31 -9 -25 -4 39 31 55 29 70 35 70 26z m160 -172 c-1 -5 -12 -28 -25 -53
l-25 -45 6 40 c3 22 7 46 9 53 5 13 35 17 35 5z m-25 -102 c-21 -43 -29 -39
-8 4 9 19 18 33 21 31 2 -2 -4 -18 -13 -35z m-88 -263 c-3 -7 -5 -2 -5 12 0
14 2 19 5 13 2 -7 2 -19 0 -25z m10 -70 c-3 -7 -5 -2 -5 12 0 14 2 19 5 13 2
-7 2 -19 0 -25z"/>
<path d="M4815 11199 c-4 -6 -5 -12 -2 -15 2 -3 7 2 10 11 7 17 1 20 -8 4z"/>
<path d="M4519 11161 c-18 -14 -21 -23 -13 -31 8 -8 16 -4 28 15 22 34 16 41
-15 16z"/>
<path d="M2860 11063 c-109 -4 -126 -8 -133 -34 -5 -19 -2 -21 26 -16 18 2 42
1 54 -4 12 -4 25 -4 28 0 4 8 78 8 95 1 3 -1 12 -3 20 -4 8 0 15 -8 15 -16 0
-12 -15 -15 -75 -16 -41 0 -102 -2 -136 -4 -33 -2 -65 0 -71 3 -6 4 -13 -2
-16 -13 -3 -11 -2 -22 1 -24 7 -4 316 -10 354 -7 24 1 58 41 58 65 -1 43 -48
77 -102 74 -18 -1 -71 -3 -118 -5z"/>
<path d="M4880 10701 c5 -11 15 -23 21 -27 6 -3 3 5 -6 20 -20 30 -30 35 -15
7z"/>
<path d="M2211 10591 c-21 -18 -21 -19 -1 -24 35 -9 22 -26 -22 -29 -35 -2
-43 -7 -43 -23 0 -12 10 -23 28 -29 39 -14 81 18 85 66 4 47 -17 65 -47 39z"/>
<path d="M2461 10591 c-19 -17 -21 -21 -8 -21 31 0 17 -26 -15 -28 -17 -2 -38
-8 -46 -14 -12 -10 -11 -15 8 -30 30 -25 56 -23 85 7 27 26 32 62 12 89 -12
16 -14 16 -36 -3z"/>
<path d="M3205 10590 c-17 -19 -17 -20 -1 -20 32 0 10 -25 -25 -28 -52 -5 -65
-35 -24 -54 55 -25 113 33 93 95 -11 32 -19 34 -43 7z"/>
<path d="M4553 10511 c-83 -89 -105 -119 -101 -133 3 -7 17 6 32 29 15 23 35
44 44 48 14 5 15 4 5 -6 -24 -24 -13 -31 13 -10 15 12 33 21 40 21 17 0 26 16
31 54 2 17 6 39 9 48 9 31 -9 18 -73 -51z"/>
<path d="M3105 10490 c10 -11 20 -20 23 -20 3 0 -3 9 -13 20 -10 11 -20 20
-23 20 -3 0 3 -9 13 -20z"/>
<path d="M2350 10496 c0 -2 8 -10 18 -17 15 -13 16 -12 3 4 -13 16 -21 21 -21
13z"/>
<path d="M2124 10476 c11 -9 24 -16 30 -16 12 0 7 5 -24 19 -24 11 -24 11 -6
-3z"/>
<path d="M3220 10470 c-9 -6 -10 -10 -3 -10 6 0 15 5 18 10 8 12 4 12 -15 0z"/>
<path d="M2473 10100 c0 -25 2 -35 4 -22 2 12 2 32 0 45 -2 12 -4 2 -4 -23z"/>
<path d="M4463 10100 c0 -25 2 -35 4 -22 2 12 2 32 0 45 -2 12 -4 2 -4 -23z"/>
<path d="M2435 10111 c18 -8 19 -9 3 -16 -10 -4 -18 -14 -18 -23 0 -13 3 -12
16 4 15 19 16 19 9 -1 -5 -15 -3 -17 5 -9 17 17 8 48 -15 51 -20 3 -20 3 0 -6z"/>
<path d="M2540 10109 c0 -5 5 -7 10 -4 6 3 10 8 10 11 0 2 -4 4 -10 4 -5 0
-10 -5 -10 -11z"/>
<path d="M2585 10111 c18 -8 19 -9 3 -16 -10 -4 -18 -14 -18 -23 0 -13 3 -12
16 4 15 19 16 19 9 -1 -5 -15 -3 -17 5 -9 17 17 8 48 -15 51 -20 3 -20 3 0 -6z"/>
<path d="M4195 10110 c-3 -5 -1 -10 4 -10 6 0 11 5 11 10 0 6 -2 10 -4 10 -3
0 -8 -4 -11 -10z"/>
<path d="M4230 10110 c-13 -8 -12 -10 3 -10 9 0 17 5 17 10 0 12 -1 12 -20 0z"/>
<path d="M4436 10097 c4 -27 -10 -38 -19 -14 -3 7 -6 4 -6 -6 -1 -12 5 -17 16
-15 21 4 29 36 14 51 -7 7 -9 2 -5 -16z"/>
<path d="M4481 10092 c-1 -27 2 -33 17 -30 10 2 18 14 20 31 2 25 2 25 -4 2
-7 -33 -22 -32 -27 3 -4 25 -4 24 -6 -6z"/>
<path d="M4532 10090 c0 -19 2 -27 5 -17 2 9 2 25 0 35 -3 9 -5 1 -5 -18z"/>
<path d="M4586 10097 c4 -27 -10 -38 -19 -14 -3 7 -6 4 -6 -6 -1 -12 5 -17 16
-15 21 4 29 36 14 51 -7 7 -9 2 -5 -16z"/>
<path d="M2518 10087 c-3 -19 -2 -25 4 -19 6 6 8 18 6 28 -3 14 -5 12 -10 -9z"/>
<path d="M4260 10059 c0 -5 5 -7 10 -4 6 3 10 8 10 11 0 2 -4 4 -10 4 -5 0
-10 -5 -10 -11z"/>
<path d="M2910 9472 c0 -10 5 -23 11 -29 8 -8 8 -13 0 -17 -6 -4 -11 -26 -11
-48 0 -39 1 -40 18 -25 10 10 24 17 30 17 7 0 12 9 12 20 0 27 29 25 34 -2 14
-67 16 -137 5 -162 -15 -31 -33 -29 -37 5 -2 13 -9 30 -15 37 -8 10 -5 14 11
19 26 6 27 13 7 39 -13 16 -16 17 -25 4 -5 -8 -10 -23 -10 -33 0 -10 -7 -20
-15 -23 -13 -5 -15 -95 -15 -725 l0 -719 118 0 118 0 13 35 c7 19 10 39 7 43
-3 5 1 17 8 27 12 16 13 13 7 -26 -8 -51 -4 -82 10 -73 5 3 7 10 3 15 -9 15 5
61 16 54 15 -9 12 -27 -2 -19 -10 5 -10 3 0 -7 13 -14 14 -14 40 28 5 8 21 9
52 3 34 -6 47 -5 55 6 9 13 13 13 30 -1 20 -15 20 -15 -5 -35 l-25 -20 26 9
c20 7 26 6 26 -4 0 -8 -3 -13 -6 -11 -3 2 -15 -1 -26 -5 -18 -9 -18 -9 3 -5
12 2 22 1 22 -3 0 -4 14 -8 31 -9 20 -2 28 1 24 8 -4 6 -13 9 -21 6 -10 -4
-14 3 -14 22 l1 27 29 -32 30 -33 459 0 c358 0 460 3 464 13 4 10 6 10 6 0 1
-9 19 -13 56 -13 l54 0 1 830 0 830 -805 0 c-769 0 -805 -1 -805 -18z m401
-75 c-10 -27 -41 -36 -41 -11 0 18 30 45 42 38 4 -3 3 -15 -1 -27z m999 14 c0
-11 4 -22 9 -26 5 -3 8 -32 6 -65 -3 -47 -1 -60 11 -60 8 0 14 -6 14 -14 0 -7
7 -27 15 -42 16 -32 20 -68 6 -60 -5 3 -12 21 -15 39 -6 31 -9 33 -42 32 -41
-1 -51 13 -34 45 9 17 8 25 -4 39 -9 10 -16 22 -16 28 0 6 -7 13 -15 17 -13 5
-12 11 6 46 23 43 59 56 59 21z m-1172 -20 c5 -29 -13 -50 -29 -34 -15 15 -3
66 14 60 7 -2 14 -14 15 -26z m545 -43 c-9 -15 -23 -8 -23 12 0 17 2 19 14 8
8 -7 12 -16 9 -20z m-529 -56 c-4 -18 -10 -29 -15 -27 -4 3 -6 12 -4 20 3 8 7
22 10 31 9 28 16 9 9 -24z m1206 -3 c0 -11 -4 -18 -10 -14 -5 3 -7 12 -3 20 7
21 13 19 13 -6z m-124 -76 c-11 -11 -17 4 -9 23 7 18 8 18 11 1 2 -10 1 -21
-2 -24z m-434 -64 c23 -17 28 -27 24 -45 -10 -40 34 -76 86 -72 28 2 42 -1 46
-11 3 -10 -2 -12 -22 -7 -15 4 -26 2 -26 -4 0 -5 -14 -17 -31 -26 -25 -13 -33
-13 -40 -3 -5 9 -13 2 -25 -24 -20 -41 -71 -68 -81 -42 -3 8 -13 15 -24 15
-16 0 -39 26 -39 44 0 3 20 6 44 6 23 0 58 5 76 11 30 11 32 14 26 47 -6 39
-19 52 -53 52 -27 0 -38 -16 -19 -27 8 -4 16 -17 18 -28 2 -17 -2 -20 -32 -19
-28 1 -34 5 -32 18 2 10 -1 15 -7 12 -5 -4 -15 3 -21 14 -6 11 -15 18 -19 15
-5 -3 -12 2 -15 11 -7 17 10 34 68 67 40 22 61 22 98 -4z m588 -101 c0 -36 -4
-35 -14 5 -4 16 -2 27 4 27 5 0 10 -14 10 -32z m-486 -97 c5 -8 -55 -51 -70
-51 -3 0 -4 10 -2 22 2 14 13 25 28 29 36 10 38 10 44 0z m42 -40 c-4 -5 0
-11 6 -14 14 -5 14 -5 -47 -28 l-30 -11 25 -10 c13 -5 36 -6 49 -3 22 6 23 5
10 -12 -31 -40 -63 -44 -103 -12 -30 23 -33 37 -10 46 9 3 27 17 40 29 22 23
72 35 60 15z m-286 -110 c0 -12 -28 -22 -34 -12 -3 5 -3 11 1 15 9 9 33 7 33
-3z m267 -73 c-3 -8 -6 -5 -6 6 -1 11 2 17 5 13 3 -3 4 -12 1 -19z m-199 -10
c7 -7 12 -18 12 -25 0 -7 15 -33 32 -58 27 -39 30 -47 18 -55 -10 -6 -20 -4
-30 6 -12 12 -13 16 -1 23 9 6 10 11 2 15 -6 4 -15 5 -20 2 -5 -3 -14 1 -21 9
-10 12 -10 15 1 16 8 0 5 4 -6 8 -23 9 -41 -9 -22 -21 9 -6 8 -8 -3 -8 -24 0
-72 47 -68 67 3 14 12 18 41 16 23 -2 35 1 32 7 -9 14 19 12 33 -2z m-88 -72
c42 -28 43 -29 21 -37 -12 -5 -19 -13 -16 -19 3 -5 1 -10 -4 -10 -6 0 -11 5
-11 10 0 6 -6 9 -12 8 -7 -2 -12 5 -10 15 2 10 -3 17 -13 17 -12 0 -14 -4 -6
-19 8 -15 5 -25 -14 -47 l-25 -29 6 35 c4 19 7 39 8 44 0 5 -5 11 -13 14 -9 3
-11 0 -6 -7 9 -16 -23 -51 -45 -51 -10 0 -20 -7 -24 -15 -5 -13 -2 -14 17 -4
22 12 22 12 4 -9 -19 -21 -53 -20 -40 2 23 39 59 78 89 95 19 11 34 28 34 38
0 10 3 14 8 8 4 -6 27 -23 52 -39z m185 -107 c4 -11 5 -23 2 -25 -6 -6 -37 25
-37 37 0 18 29 9 35 -12z m-355 -68 c1 -15 2 -15 13 0 7 9 22 21 35 28 19 10
22 9 22 -6 0 -15 2 -16 11 -3 8 12 10 12 7 1 -2 -8 -12 -15 -23 -17 -21 -3
-56 -34 -38 -34 7 0 24 5 38 12 14 6 28 8 31 5 11 -11 -18 -38 -33 -33 -8 3
-12 2 -9 -3 3 -4 -3 -16 -14 -26 -15 -13 -20 -14 -20 -5 0 11 -3 11 -12 2 -16
-16 -55 -15 -61 1 -3 8 -11 3 -23 -13 -23 -31 -30 -74 -12 -68 7 3 12 16 11
29 -1 13 0 18 3 11 5 -10 9 -10 22 0 14 11 15 10 8 -7 -16 -38 -18 -55 -9 -55
5 0 14 17 20 38 l11 37 -1 -42 c0 -23 5 -48 12 -57 17 -20 5 -21 -15 -1 -34
34 -105 5 -146 -59 -17 -27 -19 -28 -12 -6 9 33 43 100 50 100 3 0 3 -7 0 -16
-4 -9 -2 -13 5 -8 6 3 9 17 6 31 -3 15 1 27 9 30 8 3 12 9 9 13 -2 4 8 25 24
47 15 21 34 56 40 76 11 31 15 36 27 26 8 -6 14 -19 14 -28z m438 -23 c-2 -6
-10 -14 -16 -16 -7 -2 -10 2 -6 12 7 18 28 22 22 4z m-393 -306 c-3 -3 -11 0
-18 7 -9 10 -8 11 6 5 10 -3 15 -9 12 -12z m-263 -24 c-7 -7 -12 -8 -12 -2 0
14 12 26 19 19 2 -3 -1 -11 -7 -17z m493 -9 c5 -5 -1 -9 -17 -9 -14 0 -29 7
-32 16 -5 12 -1 14 17 9 12 -4 26 -11 32 -16z m-239 -43 c3 -23 -20 -15 -24 8
-3 11 1 17 9 14 7 -2 13 -12 15 -22z m-191 -16 c3 -5 2 -10 -4 -10 -5 0 -13 5
-16 10 -3 6 -2 10 4 10 5 0 13 -4 16 -10z m-55 -10 c0 -5 -2 -10 -4 -10 -3 0
-8 5 -11 10 -3 6 -1 10 4 10 6 0 11 -4 11 -10z m15 -41 c-5 -7 4 -8 28 -4 30
6 36 4 42 -14 3 -11 3 -26 -1 -33 -5 -9 -4 -10 4 -3 5 6 12 19 15 30 4 15 5
14 6 -7 2 -45 -60 -65 -92 -30 -12 13 -14 21 -6 29 8 8 8 13 0 17 -14 9 -14
26 0 26 5 0 7 -5 4 -11z m-45 -9 c0 -5 -5 -10 -11 -10 -5 0 -7 5 -4 10 3 6 8
10 11 10 2 0 4 -4 4 -10z m241 -17 c-12 -20 -14 -14 -5 12 4 9 9 14 11 11 3
-2 0 -13 -6 -23z m272 -3 c-3 -12 -8 -18 -11 -15 -3 2 -11 0 -19 -6 -10 -9
-13 -8 -13 1 0 12 28 39 42 40 3 0 4 -9 1 -20z m526 6 c8 -10 9 -16 1 -21 -13
-8 -30 3 -30 21 0 18 14 18 29 0z m-1025 -31 c-7 -16 -24 -21 -24 -6 0 8 7 13
27 20 1 1 0 -6 -3 -14z m170 0 c4 -10 -1 -15 -16 -15 -17 0 -18 2 -8 15 7 8
14 15 15 15 2 0 5 -7 9 -15z m1006 -23 c0 -13 -12 -22 -22 -16 -10 6 -1 24 13
24 5 0 9 -4 9 -8z"/>
<path d="M4315 9240 c-3 -5 -1 -10 4 -10 6 0 11 5 11 10 0 6 -2 10 -4 10 -3 0
-8 -4 -11 -10z"/>
<path d="M3282 7964 c-7 -8 -8 -15 -2 -19 6 -3 10 -2 10 4 0 5 12 11 28 13
l27 3 -26 6 c-14 3 -30 0 -37 -7z"/>
<path d="M1330 8855 c0 -8 7 -15 15 -15 8 0 15 7 15 15 0 8 -7 15 -15 15 -8 0
-15 -7 -15 -15z"/>
<path d="M2242 8858 c6 -18 28 -21 28 -4 0 9 -7 16 -16 16 -9 0 -14 -5 -12
-12z"/>
<path d="M1100 8810 c0 -49 -1 -50 -26 -44 -22 6 -25 4 -22 -12 4 -23 43 -31
64 -14 20 18 20 120 -1 120 -11 0 -15 -12 -15 -50z"/>
<path d="M1280 8795 c0 -51 3 -65 15 -65 12 0 15 14 15 65 0 51 -3 65 -15 65
-12 0 -15 -14 -15 -65z"/>
<path d="M1811 8818 c-31 -73 -34 -88 -17 -88 8 0 18 5 21 10 3 6 17 10 31 10
13 0 24 -4 24 -10 0 -5 7 -10 16 -10 9 0 14 6 12 13 -3 6 -13 36 -22 65 -21
64 -40 67 -65 10z m37 -37 c-15 -5 -19 4 -11 24 6 18 7 18 13 -1 4 -10 3 -21
-2 -23z"/>
<path d="M2290 8795 c0 -51 3 -65 15 -65 9 0 15 9 15 23 l1 22 18 -22 c11 -13
27 -23 37 -23 15 0 14 3 -6 25 l-23 25 23 25 c23 24 23 25 3 25 -11 0 -28 -10
-36 -22 -16 -23 -16 -22 -16 15 -1 26 -5 37 -16 37 -12 0 -15 -14 -15 -65z"/>
<path d="M1150 8806 c0 -14 4 -36 10 -50 8 -21 15 -25 50 -24 l40 0 0 49 c0
37 -4 49 -15 49 -10 0 -15 -10 -15 -33 0 -19 -3 -37 -7 -40 -12 -13 -33 15
-33 44 0 19 -5 29 -15 29 -9 0 -15 -9 -15 -24z"/>
<path d="M1330 8780 c0 -38 4 -50 15 -50 11 0 15 12 15 50 0 38 -4 50 -15 50
-11 0 -15 -12 -15 -50z"/>
<path d="M1391 8817 c-15 -15 -14 -62 2 -75 6 -5 29 -10 50 -10 l37 0 0 48 0
48 -39 0 c-21 0 -43 -4 -50 -11z m59 -36 c0 -23 -9 -31 -26 -24 -14 5 -19 34
-8 46 11 10 34 -5 34 -22z"/>
<path d="M1510 8778 c0 -26 5 -48 10 -48 6 0 10 13 10 29 0 29 21 57 33 44 4
-3 7 -21 7 -40 0 -23 5 -33 16 -33 12 0 14 10 12 48 l-3 47 -42 1 -43 1 0 -49z"/>
<path d="M1631 8817 c-14 -14 -14 -42 -1 -67 7 -14 21 -18 55 -18 l45 1 0 47
0 47 -44 0 c-24 1 -49 -4 -55 -10z m60 -51 c-16 -19 -41 -10 -41 14 0 24 21
31 39 14 11 -10 12 -16 2 -28z"/>
<path d="M1924 8804 c-15 -22 -15 -26 1 -50 12 -19 23 -25 41 -21 17 3 24 0
24 -10 0 -12 -8 -14 -35 -9 -36 7 -44 -1 -23 -22 18 -18 53 -15 71 6 12 13 17
36 17 74 l0 56 -40 0 c-32 1 -44 -4 -56 -24z m66 -19 c0 -7 -6 -18 -14 -24
-20 -17 -44 13 -26 33 13 17 40 10 40 -9z"/>
<path d="M2051 8817 c-15 -15 -14 -62 2 -75 6 -5 29 -10 50 -10 l37 0 0 48 0
48 -39 0 c-21 0 -43 -4 -50 -11z m59 -37 c0 -23 -29 -35 -36 -15 -4 8 -4 22 0
30 7 20 36 8 36 -15z"/>
<path d="M2160 8779 c0 -37 4 -49 15 -49 10 0 15 10 15 31 0 22 5 32 20 36 33
9 23 29 -15 30 l-35 1 0 -49z"/>
<path d="M2240 8780 c0 -38 4 -50 15 -50 11 0 15 12 15 50 0 38 -4 50 -15 50
-11 0 -15 -12 -15 -50z"/>
<path d="M2418 8819 c-33 -19 -15 -89 23 -89 36 0 59 19 59 48 0 47 -39 66
-82 41z m48 -24 c4 -8 4 -22 0 -30 -7 -19 -36 -8 -36 14 0 32 26 43 36 16z"/>
<path d="M2528 8783 c13 -35 23 -48 37 -48 14 0 24 13 37 48 15 40 16 47 3 47
-8 0 -21 -15 -28 -32 l-13 -33 -12 33 c-6 17 -18 32 -26 32 -14 0 -13 -6 2
-47z"/>
<path d="M1065 8486 c-10 -26 -15 -49 -11 -53 3 -3 6 -1 6 5 0 16 43 15 59 0
13 -13 -15 69 -29 85 -4 5 -16 -12 -25 -37z m35 -13 c0 -7 -7 -13 -16 -13 -11
0 -14 5 -10 16 3 9 6 21 6 27 0 16 20 -14 20 -30z"/>
<path d="M1333 8480 c0 -30 2 -43 4 -27 2 15 2 39 0 55 -2 15 -4 2 -4 -28z"/>
<path d="M1720 8516 c0 -10 -9 -14 -26 -13 -51 4 -59 -64 -8 -70 15 -2 14 -1
-3 7 -27 11 -30 32 -7 51 14 11 18 10 29 -5 8 -10 11 -24 9 -31 -3 -7 -1 -16
5 -20 7 -4 11 11 11 44 0 28 -2 51 -5 51 -3 0 -5 -6 -5 -14z"/>
<path d="M1470 8492 c0 -42 9 -62 29 -62 12 0 13 2 3 9 -8 5 -12 21 -10 41 2
20 -2 35 -9 37 -9 3 -13 -6 -13 -25z"/>
<path d="M2057 8513 c-2 -5 -2 -25 0 -45 4 -27 10 -38 22 -38 13 0 13 2 2 9
-9 6 -12 20 -9 40 4 30 -5 51 -15 34z"/>
<path d="M1163 8503 c-8 -2 -12 -20 -12 -41 l2 -37 6 35 c4 22 12 35 21 35 9
0 18 -13 22 -35 l6 -35 -1 40 c-2 40 -15 51 -44 38z"/>
<path d="M1242 8498 c-24 -24 -6 -69 28 -67 9 0 6 4 -7 9 -26 11 -30 32 -8 50
20 16 48 -5 40 -31 -3 -9 -1 -20 5 -24 6 -4 10 7 10 28 0 27 -5 36 -22 41 -31
8 -32 8 -46 -6z"/>
<path d="M1407 8504 c-13 -14 -7 -33 13 -39 26 -8 26 -29 0 -22 -11 3 -18 1
-14 -4 7 -13 31 -11 40 2 4 7 -4 20 -17 30 -13 10 -21 21 -17 25 4 4 15 1 24
-7 15 -12 17 -12 12 1 -5 17 -30 25 -41 14z"/>
<path d="M1532 8498 c-28 -28 -5 -69 36 -65 18 1 22 7 22 33 0 40 -32 58 -58
32z m43 -28 c0 -29 -32 -41 -41 -16 -9 24 4 48 23 44 12 -2 18 -12 18 -28z"/>
<path d="M1764 8502 c-30 -20 -18 -72 16 -72 10 0 21 4 24 9 3 4 -6 6 -19 3
-15 -2 -25 0 -25 7 0 6 11 11 24 11 30 0 42 16 26 35 -14 16 -29 19 -46 7z
m34 -20 c2 -7 -6 -12 -17 -12 -21 0 -27 11 -14 24 9 9 26 2 31 -12z"/>
<path d="M1881 8501 c-12 -8 -12 -12 -2 -25 8 -9 20 -16 28 -16 8 0 11 -5 7
-11 -3 -6 -15 -8 -27 -5 -14 3 -17 2 -10 -5 14 -14 45 -8 50 8 3 7 -7 17 -22
23 -15 6 -23 15 -20 21 4 6 14 8 22 5 8 -3 11 -1 8 4 -8 12 -16 12 -34 1z"/>
<path d="M1987 8503 c-13 -13 -7 -32 13 -38 26 -8 26 -29 0 -22 -11 3 -18 1
-14 -4 3 -5 14 -9 25 -9 26 0 25 36 -1 43 -11 3 -20 11 -20 17 0 7 8 10 20 7
11 -3 18 -1 14 4 -6 11 -28 12 -37 2z"/>
<path d="M2118 8499 c-21 -12 -23 -40 -6 -57 15 -15 45 -16 53 -2 4 7 -2 9
-18 5 -14 -4 -28 -2 -31 4 -5 7 4 11 23 11 24 0 31 4 31 19 0 10 -7 22 -16 25
-19 7 -15 8 -36 -5z m40 -17 c2 -7 -6 -12 -17 -12 -21 0 -27 11 -14 24 9 9 26
2 31 -12z"/>
<path d="M2233 8499 c10 -6 18 -23 18 -42 l2 -32 6 35 c4 22 12 35 21 35 9 0
17 -13 21 -35 l6 -35 2 38 c1 41 -18 58 -43 38 -10 -8 -16 -9 -21 -1 -3 5 -12
10 -18 10 -7 0 -4 -5 6 -11z"/>
<path d="M2348 8499 c-39 -22 -13 -71 36 -67 22 2 26 7 26 35 0 18 -4 33 -9
33 -5 0 -15 2 -23 5 -7 2 -21 0 -30 -6z m41 -13 c15 -18 3 -46 -19 -46 -10 0
-21 7 -24 16 -6 16 9 44 24 44 4 0 13 -6 19 -14z"/>
<path d="M2437 8503 c-13 -13 -7 -32 13 -38 26 -8 26 -29 0 -22 -11 3 -18 1
-14 -4 3 -5 14 -9 25 -9 26 0 25 36 -1 43 -11 3 -20 11 -20 17 0 7 8 10 20 7
11 -3 18 -1 14 4 -6 11 -28 12 -37 2z"/>
<path d="M1360 8465 c0 -19 5 -35 10 -35 6 0 10 16 10 35 0 19 -4 35 -10 35
-5 0 -10 -16 -10 -35z"/>
<path d="M1953 8465 c0 -22 2 -30 4 -17 2 12 2 30 0 40 -3 9 -5 -1 -4 -23z"/>
<path d="M2190 8463 c0 -43 5 -41 13 5 4 18 2 32 -3 32 -6 0 -10 -16 -10 -37z"/>
<path d="M1508 8307 c-7 -22 7 -80 20 -83 7 -1 8 0 2 3 -12 6 -13 60 -1 65 5
2 3 8 -4 15 -10 9 -14 9 -17 0z"/>
<path d="M1898 8278 c-2 -35 -7 -43 -22 -41 -12 1 -15 -2 -8 -9 22 -22 42 0
42 47 0 57 -8 59 -12 3z"/>
<path d="M2023 8270 c0 -30 2 -43 4 -27 2 15 2 39 0 55 -2 15 -4 2 -4 -28z"/>
<path d="M1060 8286 c-27 -34 12 -88 43 -57 7 7 4 8 -10 5 -12 -3 -24 -1 -27
5 -5 7 4 11 23 11 32 0 41 16 19 38 -16 16 -33 15 -48 -2z m34 -2 c25 -9 19
-24 -9 -24 -24 0 -32 10 -18 23 8 8 8 8 27 1z"/>
<path d="M1188 8289 c-21 -12 -23 -40 -6 -57 14 -14 44 -16 52 -3 3 4 -5 6
-18 4 -13 -3 -27 0 -30 6 -5 7 4 11 23 11 24 0 31 4 31 19 0 10 -7 22 -16 25
-19 7 -15 8 -36 -5z m40 -17 c2 -7 -6 -12 -17 -12 -21 0 -27 11 -14 24 9 9 26
2 31 -12z"/>
<path d="M1273 8293 c-20 -7 -15 -31 7 -38 26 -8 26 -29 0 -22 -11 3 -18 1
-14 -4 9 -15 41 -10 48 6 4 11 -3 19 -20 25 -14 6 -22 15 -19 21 4 6 14 8 22
5 8 -3 11 -1 8 4 -7 11 -13 11 -32 3z"/>
<path d="M1348 8289 c-21 -12 -23 -40 -6 -57 15 -15 45 -16 53 -2 4 7 -2 9
-19 4 -32 -8 -47 20 -23 43 13 13 19 14 31 3 9 -7 16 -8 16 -2 0 5 -7 13 -16
16 -19 7 -15 8 -36 -5z"/>
<path d="M1421 8257 c1 -28 3 -33 6 -17 3 14 9 30 14 36 6 8 4 14 -6 18 -12 4
-15 -3 -14 -37z"/>
<path d="M1566 8285 c-19 -20 -20 -26 -3 -49 26 -36 84 4 61 42 -15 23 -38 26
-58 7z m43 -9 c15 -18 3 -46 -20 -46 -13 0 -19 7 -19 23 0 37 18 48 39 23z"/>
<path d="M1651 8256 c2 -34 3 -36 6 -11 3 17 9 35 14 41 5 7 3 11 -6 11 -11 0
-15 -11 -14 -41z"/>
<path d="M1710 8284 c-7 -7 -10 -23 -8 -36 2 -18 10 -23 36 -24 30 -1 32 1 32
35 0 31 -3 36 -25 37 -13 1 -29 -4 -35 -12z m38 -3 c19 -11 11 -45 -11 -49
-19 -4 -32 20 -23 43 6 17 15 19 34 6z"/>
<path d="M1988 8268 c-4 -46 -34 -50 -47 -6 -8 30 -9 31 -10 7 -1 -31 16 -49
47 -46 19 1 22 7 22 39 0 46 -8 50 -12 6z"/>
<path d="M2063 8260 c0 -25 2 -35 4 -22 2 12 2 32 0 45 -2 12 -4 2 -4 -23z"/>
<path d="M2100 8286 c-6 -8 -10 -25 -8 -38 2 -18 10 -23 36 -24 30 -1 32 1 32
31 0 43 -35 60 -60 31z m45 -26 c0 -29 -32 -41 -41 -16 -9 24 4 48 23 44 12
-2 18 -12 18 -28z"/>
<path d="M2203 8293 c-8 -2 -12 -20 -12 -41 l2 -37 6 35 c4 22 12 35 21 35 9
0 18 -13 22 -35 l6 -35 -1 40 c-2 40 -15 51 -44 38z"/>
<path d="M2288 8289 c-39 -22 -13 -71 36 -67 22 2 26 7 26 35 0 18 -4 33 -9
33 -5 0 -15 2 -23 5 -7 2 -21 0 -30 -6z m41 -13 c15 -18 3 -46 -19 -46 -10 0
-21 7 -24 16 -6 16 9 44 24 44 4 0 13 -6 19 -14z"/>
<path d="M2416 8284 c-19 -18 -19 -20 -6 -45 11 -19 44 -26 54 -10 3 4 -6 6
-19 3 -15 -2 -25 0 -25 7 0 6 11 11 23 11 31 0 38 9 26 31 -12 23 -32 24 -53
3z m42 -12 c2 -7 -6 -12 -17 -12 -21 0 -27 11 -14 24 9 9 26 2 31 -12z"/>
<path d="M1473 8255 c0 -22 2 -30 4 -17 2 12 2 30 0 40 -3 9 -5 -1 -4 -23z"/>
<path d="M1786 8213 c-6 -14 -5 -15 5 -6 7 7 10 15 7 18 -3 3 -9 -2 -12 -12z"/>
<path d="M1613 8060 c0 -30 2 -43 4 -27 2 15 2 39 0 55 -2 15 -4 2 -4 -28z"/>
<path d="M1752 8058 c2 -23 8 -43 16 -44 7 -1 8 0 2 3 -13 6 -13 46 1 60 7 7
6 12 -6 17 -14 5 -16 -1 -13 -36z"/>
<path d="M1060 8076 c-27 -34 12 -88 43 -57 7 7 4 8 -10 5 -12 -3 -24 -1 -27
5 -5 7 4 11 23 11 32 0 41 16 19 38 -16 16 -33 15 -48 -2z m34 -2 c25 -9 19
-24 -9 -24 -24 0 -32 10 -18 23 8 8 8 8 27 1z"/>
<path d="M1147 8084 c-13 -14 -7 -33 13 -39 26 -8 26 -29 0 -22 -11 3 -18 1
-14 -4 7 -13 31 -11 40 2 4 7 -4 20 -17 30 -13 10 -21 21 -17 25 4 4 15 1 24
-7 15 -12 17 -12 12 1 -5 17 -30 25 -41 14z"/>
<path d="M1228 8083 c-15 -4 -18 -15 -17 -56 1 -29 4 -43 6 -31 3 16 10 20 27
17 32 -7 52 21 38 52 -11 25 -20 27 -54 18z m41 -17 c15 -18 3 -46 -19 -46
-10 0 -21 7 -24 16 -6 16 9 44 24 44 4 0 13 -6 19 -14z"/>
<path d="M1318 8079 c-21 -12 -23 -40 -6 -57 14 -14 44 -16 52 -3 3 4 -5 6
-18 4 -13 -3 -27 0 -30 6 -5 7 4 11 23 11 24 0 31 4 31 19 0 10 -7 22 -16 25
-19 7 -15 8 -36 -5z m40 -17 c2 -7 -6 -12 -17 -12 -21 0 -27 11 -14 24 9 9 26
2 31 -12z"/>
<path d="M1400 8075 c-15 -18 -10 -45 12 -59 12 -7 21 -7 28 0 8 8 4 10 -12
10 -17 -1 -24 5 -26 22 -4 28 22 39 46 21 15 -13 16 -12 3 4 -16 21 -35 22
-51 2z"/>
<path d="M1483 8050 c0 -25 2 -35 4 -22 2 12 2 32 0 45 -2 12 -4 2 -4 -23z"/>
<path d="M1520 8076 c-6 -8 -10 -25 -8 -38 2 -18 10 -23 36 -24 30 -1 32 1 32
31 0 43 -35 60 -60 31z m45 -26 c0 -29 -32 -41 -41 -16 -9 24 4 48 23 44 12
-2 18 -12 18 -28z"/>
<path d="M1680 8075 c-10 -12 -7 -17 14 -26 35 -16 33 -33 -1 -24 -21 5 -25 4
-17 -5 14 -14 46 -10 51 7 3 7 -7 18 -21 24 -30 14 -24 33 7 24 17 -5 19 -4 7
4 -20 14 -25 14 -40 -4z"/>
<path d="M1810 8074 c-7 -7 -10 -23 -8 -36 2 -18 10 -23 36 -24 30 -1 32 1 32
35 0 31 -3 36 -25 37 -13 1 -29 -4 -35 -12z m38 -3 c19 -11 11 -45 -11 -49
-19 -4 -32 20 -23 43 6 17 15 19 34 6z"/>
<path d="M1940 8076 c-27 -34 12 -88 43 -57 7 7 4 8 -10 5 -12 -3 -24 -1 -27
5 -5 7 4 11 23 11 32 0 41 16 19 38 -16 16 -33 15 -48 -2z m48 -13 c2 -8 -6
-13 -22 -13 -25 0 -33 10 -19 24 10 10 36 3 41 -11z"/>
<path d="M2021 8045 l2 -40 6 35 c8 46 35 48 39 3 2 -18 7 -33 12 -33 5 0 10
15 12 33 4 45 31 43 39 -3 l6 -35 2 31 c1 38 -22 62 -43 45 -10 -8 -16 -9 -21
-2 -3 6 -17 10 -30 9 -22 -2 -25 -7 -24 -43z"/>
<path d="M1643 8045 c0 -22 2 -30 4 -17 2 12 2 30 0 40 -3 9 -5 -1 -4 -23z"/>
<path d="M1051 7848 c1 -29 4 -43 6 -30 2 12 12 22 21 22 16 1 15 2 0 11 -25
14 -22 37 5 42 19 4 18 4 -5 6 -27 1 -28 0 -27 -51z"/>
<path d="M1480 7850 c0 -48 1 -50 28 -49 23 2 24 2 5 6 -27 5 -31 33 -5 33 16
1 16 1 0 11 -25 14 -22 37 5 42 19 4 18 4 -5 6 -27 1 -28 -1 -28 -49z"/>
<path d="M1700 7887 c0 -8 -10 -13 -21 -13 -12 1 -26 -7 -33 -16 -15 -25 4
-53 38 -54 25 -1 26 1 26 47 0 27 -2 49 -5 49 -3 0 -5 -6 -5 -13z m-5 -47 c0
-29 -32 -41 -41 -16 -9 24 4 48 23 44 12 -2 18 -12 18 -28z"/>
<path d="M1357 7883 c-2 -5 -2 -25 0 -45 4 -27 10 -38 22 -38 13 0 13 2 2 9
-9 6 -12 20 -9 40 4 30 -5 51 -15 34z"/>
<path d="M1138 7873 c-14 -3 -18 -14 -17 -41 1 -28 3 -31 6 -12 3 14 12 33 20
43 9 9 14 16 12 16 -2 -1 -12 -3 -21 -6z"/>
<path d="M1188 7869 c-33 -19 -15 -69 24 -69 15 0 38 27 38 44 0 7 -31 36 -38
36 -4 0 -15 -5 -24 -11z m37 -30 c0 -15 -7 -25 -18 -27 -22 -4 -33 24 -17 43
18 21 35 13 35 -16z"/>
<path d="M1278 7873 c-13 -3 -18 -15 -18 -39 0 -43 18 -45 22 -1 4 45 31 43
39 -3 l6 -35 2 36 c1 25 -4 39 -15 43 -9 3 -16 5 -17 5 -1 -1 -10 -3 -19 -6z"/>
<path d="M1568 7873 c-14 -3 -18 -14 -17 -41 2 -29 3 -31 6 -10 5 30 27 53 43
43 5 -3 11 -21 11 -38 2 -31 2 -31 6 -4 4 26 -11 59 -26 56 -3 -1 -14 -3 -23
-6z"/>
<path d="M1418 7853 c6 -2 18 -2 25 0 6 3 1 5 -13 5 -14 0 -19 -2 -12 -5z"/>
<path d="M1762 7358 c-6 -6 -12 -18 -12 -25 0 -7 -8 -13 -18 -13 -33 0 -42
-22 -42 -101 0 -113 -4 -109 110 -109 114 0 110 -4 110 109 0 78 -9 101 -40
101 -8 0 -20 10 -25 23 -11 25 -63 35 -83 15z m58 -23 c11 -13 8 -15 -20 -15
-28 0 -31 2 -20 15 7 8 16 15 20 15 4 0 13 -7 20 -15z m-70 -60 c0 -8 5 -15
10 -15 6 0 10 7 10 15 0 10 10 15 30 15 20 0 30 -5 30 -15 0 -8 5 -15 10 -15
6 0 10 7 10 15 0 8 7 15 15 15 12 0 15 -16 15 -80 l0 -80 -80 0 -80 0 0 80 c0
64 3 80 15 80 8 0 15 -7 15 -15z"/>
<path d="M1176 7339 c-19 -15 -26 -30 -26 -56 0 -30 10 -45 65 -102 l65 -66
65 66 c54 56 65 72 65 101 0 23 -8 42 -23 56 -26 25 -45 27 -82 10 -21 -9 -31
-9 -46 0 -27 17 -53 15 -83 -9z m86 -26 c17 -15 19 -15 36 0 26 24 69 22 82
-4 16 -29 -1 -66 -56 -120 l-44 -43 -44 43 c-55 54 -72 91 -56 120 13 26 56
28 82 4z"/>
<path d="M640 4975 l0 -1475 2135 0 2135 0 0 1475 0 1475 -2135 0 -2135 0 0
-1475z m945 1185 c-3 -5 -11 -10 -16 -10 -6 0 -7 5 -4 10 3 6 11 10 16 10 6 0
7 -4 4 -10z m-87 -27 c-14 -3 -18 -16 -20 -56 l-2 -52 -3 52 c-3 38 -8 53 -21
56 -9 3 1 5 23 5 22 0 32 -2 23 -5z m120 -5 c7 -7 12 -26 12 -43 0 -37 -16
-55 -49 -55 -51 0 -80 60 -45 94 18 19 65 21 82 4z m101 -2 c17 -20 3 -46 -25
-46 -19 0 -24 -5 -24 -25 0 -14 -4 -25 -10 -25 -5 0 -10 25 -10 55 0 54 1 55
29 55 16 0 34 -6 40 -14z m41 -41 c0 -30 -4 -55 -10 -55 -5 0 -10 25 -10 55 0
30 5 55 10 55 6 0 10 -25 10 -55z m110 40 c15 -18 7 -19 -20 -3 -28 18 -55 -1
-55 -37 0 -36 27 -55 55 -37 27 16 35 15 20 -4 -21 -25 -72 -14 -88 19 -12 24
-11 31 2 53 19 28 66 33 86 9z m124 -1 c33 -32 7 -94 -40 -94 -45 0 -67 47
-44 91 13 23 62 26 84 3z m101 6 c4 -6 -6 -7 -25 -4 -42 9 -42 -23 1 -38 23
-8 29 -16 27 -32 -2 -16 -10 -21 -32 -21 -17 0 -31 6 -34 15 -5 13 -3 13 11 1
18 -14 47 -9 47 9 0 6 -13 16 -30 21 -28 10 -40 36 -23 52 10 11 51 8 58 -3z
m95 -45 l13 -39 23 49 c13 28 21 39 18 26 -9 -35 -33 -91 -40 -91 -5 0 -27 50
-39 90 -12 42 11 10 25 -35z m87 -27 c-2 -18 -4 -6 -4 27 0 33 2 48 4 33 2
-15 2 -42 0 -60z m93 73 c0 -4 -11 -6 -25 -3 -34 6 -34 -25 -1 -38 30 -11 38
-23 30 -44 -8 -20 -48 -21 -64 -1 -9 10 -9 15 -1 15 6 0 11 -4 11 -10 0 -5 9
-10 20 -10 13 0 20 7 20 20 0 11 -6 20 -13 20 -24 0 -48 25 -41 43 6 17 64 25
64 8z m37 -73 c-2 -18 -4 -6 -4 27 0 33 2 48 4 33 2 -15 2 -42 0 -60z m81 75
c-14 -3 -18 -16 -20 -56 l-2 -52 -3 52 c-3 38 -8 53 -21 56 -9 3 1 5 23 5 22
0 32 -2 23 -5z m95 -40 c19 -53 22 -77 6 -50 -13 22 -37 22 -62 0 -18 -17 -18
-15 2 37 12 30 21 56 21 58 0 1 4 2 8 2 4 0 16 -21 25 -47z m124 21 c15 -24
15 -29 2 -53 -11 -19 -24 -27 -52 -29 l-37 -3 0 55 0 56 35 0 c26 0 39 -6 52
-26z m121 14 c17 -17 15 -64 -4 -82 -47 -48 -116 14 -84 75 12 22 68 27 88 7z
m97 3 c3 -6 -7 -9 -21 -8 -38 3 -41 -19 -4 -32 25 -8 31 -15 28 -33 -2 -18 -9
-23 -32 -23 -17 0 -31 6 -34 15 -5 13 -3 13 11 1 18 -14 47 -9 47 9 0 6 -13
16 -30 21 -28 10 -40 36 -23 52 10 10 51 8 58 -2z m143 -19 c2 -13 -3 -24 -12
-28 -14 -5 -14 -8 1 -30 8 -13 11 -24 6 -24 -5 0 -16 11 -23 25 -17 32 -28 32
-33 -2 -2 -16 -5 -2 -6 30 l-1 58 33 -3 c24 -2 33 -8 35 -26z m60 21 c-20 -3
-28 -10 -28 -24 0 -14 7 -19 28 -20 l27 -2 -27 -4 c-19 -3 -28 -10 -28 -23 0
-13 9 -20 28 -23 25 -4 25 -4 -5 -6 l-33 -1 0 55 0 55 33 -1 c30 -2 30 -2 5
-6z m126 1 c9 -3 16 -11 16 -17 0 -7 -4 -7 -12 1 -16 16 -53 15 -68 -2 -29
-36 11 -92 50 -68 27 16 35 15 20 -3 -14 -17 -43 -19 -71 -5 -22 12 -27 68 -7
88 13 13 47 16 72 6z m79 -1 c-15 -3 -23 -12 -23 -24 0 -13 7 -19 23 -20 l22
-2 -22 -4 c-14 -3 -23 -12 -23 -23 0 -11 9 -20 23 -23 16 -3 13 -5 -10 -6
l-33 -1 0 55 0 55 33 -1 c23 -1 26 -3 10 -6z m84 -35 l28 -42 6 45 6 44 1 -57
c1 -32 -1 -58 -5 -58 -5 0 -20 19 -35 43 l-28 42 0 -42 c0 -24 -4 -43 -10 -43
-5 0 -10 25 -10 55 0 30 4 55 10 55 5 0 22 -19 37 -42z m121 35 c-14 -3 -18
-16 -20 -56 l-2 -52 -3 52 c-3 38 -8 53 -21 56 -9 3 1 5 23 5 22 0 32 -2 23
-5z m70 0 c-36 -5 -40 -42 -5 -44 l22 -2 -22 -4 c-34 -6 -30 -41 5 -46 25 -4
25 -4 -5 -6 l-33 -1 0 55 0 55 33 -1 c30 -2 30 -2 5 -6z m77 -43 l18 -41 20
46 c11 25 23 45 28 45 5 0 8 -26 8 -57 -2 -55 -2 -56 -8 -18 l-7 40 -17 -38
c-19 -43 -28 -42 -48 5 l-14 33 -6 -40 c-6 -37 -6 -35 -8 18 -1 65 7 67 34 7z
m138 43 c-15 -3 -23 -12 -23 -24 0 -13 7 -19 23 -20 l22 -2 -22 -4 c-14 -3
-23 -12 -23 -23 0 -11 9 -20 23 -23 16 -3 13 -5 -10 -6 l-33 -1 0 55 0 55 33
-1 c23 -1 26 -3 10 -6z m61 -11 c-1 -7 -2 -30 -2 -52 -3 -62 -22 -47 -22 16 0
40 3 55 13 52 6 -3 12 -10 11 -16z m66 -37 c0 -30 -3 -55 -7 -55 -9 0 -53 65
-53 77 0 5 11 -5 25 -22 l24 -30 1 43 c0 23 2 42 5 42 3 0 5 -25 5 -55z m78
48 c-14 -3 -18 -16 -20 -56 l-2 -52 -3 52 c-3 38 -8 53 -21 56 -9 3 1 5 23 5
22 0 32 -2 23 -5z m70 0 c-36 -5 -40 -42 -5 -44 l22 -2 -22 -4 c-34 -6 -30
-41 5 -46 22 -3 20 -4 -10 -6 l-38 -1 0 55 0 55 38 -1 c30 -2 32 -3 10 -6z
m-2238 -748 l0 -265 -530 0 -530 0 0 265 0 265 530 0 530 0 0 -265z m1890 0
l0 -265 -865 0 -865 0 0 265 0 265 865 0 865 0 0 -265z m1010 0 l0 -265 -425
0 -425 0 0 265 0 265 425 0 425 0 0 -265z m-2750 -690 l0 -265 -555 0 -555 0
0 265 0 265 555 0 555 0 0 -265z m1480 0 l0 -265 -660 0 -660 0 0 265 0 265
660 0 660 0 0 -265z m1160 0 l0 -265 -500 0 -500 0 0 265 0 265 500 0 500 0 0
-265z m-2020 -690 l0 -265 -355 0 -355 0 0 265 0 265 355 0 355 0 0 -265z
m1000 0 l0 -265 -420 0 -420 0 0 265 0 265 420 0 420 0 0 -265z"/>
<path d="M1541 6108 c-12 -32 -2 -57 25 -64 30 -8 54 11 54 40 0 47 -63 66
-79 24z"/>
<path d="M1670 6110 c0 -13 7 -20 20 -20 13 0 20 7 20 20 0 13 -7 20 -20 20
-13 0 -20 -7 -20 -20z"/>
<path d="M1920 6114 c-21 -24 -1 -68 33 -72 20 -3 29 2 38 21 23 50 -37 93
-71 51z"/>
<path d="M2547 6099 c-7 -27 -4 -32 17 -27 12 2 13 7 2 27 l-13 23 -6 -23z"/>
<path d="M2630 6085 c0 -40 2 -45 23 -45 29 0 47 18 47 45 0 27 -18 45 -47 45
-21 0 -23 -5 -23 -45z"/>
<path d="M2749 6109 c-16 -30 3 -69 34 -69 29 0 47 17 47 45 0 45 -60 63 -81
24z"/>
<path d="M3010 6110 c0 -16 5 -21 23 -18 12 2 22 10 22 18 0 8 -10 16 -22 18
-18 3 -23 -2 -23 -18z"/>
<path d="M986 3191 c-4 -5 -2 -12 3 -15 5 -4 12 -2 15 3 4 5 2 12 -3 15 -5 4
-12 2 -15 -3z"/>
<path d="M3156 3191 c-4 -5 -2 -12 3 -15 5 -4 12 -2 15 3 4 5 2 12 -3 15 -5 4
-12 2 -15 -3z"/>
<path d="M1860 3170 c0 -17 -5 -19 -25 -14 -33 8 -55 -11 -55 -46 0 -36 17
-48 63 -47 l37 1 0 63 c0 35 -4 63 -10 63 -5 0 -10 -9 -10 -20z m-6 -45 c8
-23 -4 -45 -25 -45 -11 0 -22 7 -25 15 -9 23 3 45 25 45 10 0 21 -7 25 -15z"/>
<path d="M2510 3170 c0 -16 -5 -19 -29 -14 -24 5 -32 1 -46 -20 -16 -24 -16
-28 -1 -51 13 -20 24 -24 51 -22 l35 2 0 63 c0 34 -2 62 -5 62 -3 0 -5 -9 -5
-20z m-6 -45 c9 -24 -4 -45 -29 -45 -13 0 -25 7 -29 15 -9 24 4 45 29 45 13 0
25 -7 29 -15z"/>
<path d="M3280 3170 c0 -16 -5 -19 -29 -14 -24 5 -32 1 -46 -20 -16 -24 -16
-28 -1 -51 13 -20 24 -24 51 -22 l35 2 0 63 c0 34 -2 62 -5 62 -3 0 -5 -9 -5
-20z m-6 -45 c9 -24 -4 -45 -29 -45 -25 0 -38 21 -29 45 4 8 16 15 29 15 13 0
25 -7 29 -15z"/>
<path d="M3520 3170 c0 -17 -5 -19 -25 -14 -33 8 -55 -11 -55 -46 0 -36 18
-50 63 -48 l37 1 0 64 c0 35 -4 63 -10 63 -5 0 -10 -9 -10 -20z m-5 -60 c0
-18 -6 -26 -23 -28 -13 -2 -25 3 -28 12 -10 26 4 48 28 44 17 -2 23 -10 23
-28z"/>
<path d="M890 3120 c0 -33 4 -60 10 -60 6 0 10 11 10 25 0 17 7 29 23 35 l22
9 -22 0 c-16 1 -23 7 -23 20 0 15 8 21 33 24 28 3 26 4 -10 5 l-43 2 0 -60z"/>
<path d="M2137 3168 c-2 -7 -1 -33 2 -58 4 -32 11 -46 24 -48 9 -2 17 1 17 7
0 6 -4 11 -10 11 -15 0 -12 58 2 62 9 3 8 9 -4 21 -20 20 -24 21 -31 5z"/>
<path d="M3780 3140 c0 -22 5 -40 10 -40 6 0 10 18 10 40 0 22 -4 40 -10 40
-5 0 -10 -18 -10 -40z"/>
<path d="M990 3111 c0 -28 5 -51 10 -51 6 0 10 20 10 44 0 25 -4 48 -10 51 -6
4 -10 -13 -10 -44z"/>
<path d="M1041 3147 c-16 -16 -14 -62 4 -77 8 -7 26 -10 40 -8 22 5 25 2 25
-23 0 -16 5 -29 10 -29 6 0 10 31 10 73 l0 73 -39 1 c-21 1 -43 -3 -50 -10z
m64 -37 c0 -18 -6 -26 -23 -28 -24 -4 -38 18 -28 44 3 9 15 14 28 12 17 -2 23
-10 23 -28z"/>
<path d="M1164 3115 l1 -50 38 -1 37 -1 -1 51 c-1 28 -3 42 -6 31 -2 -11 -6
-30 -9 -43 -3 -17 -10 -22 -27 -20 -17 2 -23 12 -28 43 -7 38 -7 38 -5 -10z"/>
<path d="M1282 3148 c-7 -7 -12 -24 -12 -38 0 -14 5 -31 12 -38 16 -16 53 -15
68 3 10 12 6 13 -24 8 -24 -4 -36 -2 -36 6 0 6 16 11 35 11 27 0 35 4 35 18 0
24 -19 42 -45 42 -12 0 -26 -5 -33 -12z m58 -18 c0 -5 -11 -10 -25 -10 -14 0
-25 5 -25 10 0 6 11 10 25 10 14 0 25 -4 25 -10z"/>
<path d="M1430 3083 c0 -42 4 -73 10 -73 6 0 10 13 10 29 0 25 3 28 25 23 33
-6 55 14 55 48 0 36 -17 48 -62 47 l-38 -1 0 -73z m75 27 c0 -18 -6 -26 -23
-28 -24 -4 -38 18 -28 44 3 9 15 14 28 12 17 -2 23 -10 23 -28z"/>
<path d="M1562 3148 c-7 -7 -12 -24 -12 -38 0 -53 57 -69 86 -25 15 23 15 27
0 50 -18 27 -54 33 -74 13z m62 -23 c9 -25 -4 -45 -30 -45 -20 0 -24 5 -24 30
0 25 4 30 24 30 13 0 26 -7 30 -15z"/>
<path d="M1670 3109 c0 -27 5 -49 10 -49 6 0 10 18 10 40 0 29 4 40 15 40 8 0
15 4 15 9 0 5 -11 9 -25 9 -23 0 -25 -4 -25 -49z"/>
<path d="M1918 3149 c-21 -12 -24 -59 -6 -77 16 -16 53 -15 68 3 10 12 6 13
-24 8 -24 -4 -36 -2 -36 6 0 6 15 11 34 11 42 0 50 10 30 38 -16 24 -39 27
-66 11z m52 -19 c0 -5 -12 -10 -26 -10 -14 0 -23 4 -19 10 3 6 15 10 26 10 10
0 19 -4 19 -10z"/>
<path d="M2020 3108 c0 -27 5 -48 10 -48 6 0 10 18 10 41 0 36 2 40 23 37 18
-2 23 -10 25 -40 4 -45 22 -51 22 -7 0 50 -16 69 -55 66 -35 -2 -35 -2 -35
-49z"/>
<path d="M2200 3109 c0 -27 5 -49 10 -49 6 0 10 16 10 35 0 22 6 38 15 41 23
9 18 22 -10 22 -23 0 -25 -4 -25 -49z"/>
<path d="M2274 3135 c-15 -23 -15 -27 0 -50 29 -44 86 -28 86 25 0 53 -57 69
-86 25z m61 -25 c0 -16 -6 -26 -19 -28 -25 -5 -39 12 -31 38 10 31 50 24 50
-10z"/>
<path d="M2561 3147 c-15 -15 -14 -62 2 -75 6 -6 29 -10 50 -9 l37 1 0 46 0
46 -39 1 c-21 1 -43 -3 -50 -10z m63 -22 c9 -25 -4 -45 -30 -45 -18 0 -24 5
-24 23 0 13 3 27 7 30 12 12 41 7 47 -8z"/>
<path d="M2679 3144 c-11 -14 -10 -18 6 -30 10 -8 25 -14 32 -14 7 0 13 -5 13
-11 0 -8 -11 -9 -31 -5 -27 5 -30 4 -19 -9 16 -20 44 -19 61 1 11 14 10 18 -6
30 -10 8 -25 14 -32 14 -7 0 -13 5 -13 11 0 8 11 9 31 5 27 -5 30 -4 19 9 -16
20 -44 19 -61 -1z"/>
<path d="M2820 3108 c0 -26 5 -48 10 -48 6 0 10 18 10 41 0 36 2 40 23 37 18
-2 23 -10 25 -40 4 -45 22 -51 22 -7 0 50 -16 69 -55 67 -35 -1 -35 -1 -35
-50z"/>
<path d="M2948 3149 c-21 -12 -24 -59 -6 -77 18 -18 53 -15 71 6 22 24 21 45
-1 65 -21 19 -39 21 -64 6z m57 -39 c0 -18 -6 -26 -23 -28 -13 -2 -25 3 -28
12 -10 26 4 48 28 44 17 -2 23 -10 23 -28z"/>
<path d="M3044 3148 c2 -7 10 -30 17 -51 16 -48 37 -45 56 7 19 57 9 69 -14
17 l-19 -44 -12 42 c-7 22 -17 41 -23 41 -6 0 -8 -6 -5 -12z"/>
<path d="M3150 3110 c0 -27 5 -50 10 -50 6 0 10 23 10 50 0 28 -4 50 -10 50
-5 0 -10 -22 -10 -50z"/>
<path d="M3331 3147 c-15 -15 -14 -62 2 -75 6 -6 29 -10 50 -9 l37 1 0 46 0
46 -39 1 c-21 1 -43 -3 -50 -10z m68 -31 c4 -23 -24 -47 -45 -39 -8 3 -14 18
-14 35 0 26 3 29 27 26 18 -2 29 -10 32 -22z"/>
<path d="M3576 3144 c-9 -8 -16 -24 -16 -34 0 -41 55 -65 80 -35 15 18 -1 20
-18 3 -9 -9 -16 -8 -29 5 -16 16 -15 17 19 17 44 0 52 10 32 38 -18 26 -46 28
-68 6z m64 -19 c0 -3 -14 -5 -31 -5 -27 0 -30 2 -19 15 9 11 17 12 31 4 10 -5
19 -12 19 -14z"/>
<path d="M3687 3153 c-16 -15 -6 -43 18 -49 14 -4 24 -11 22 -18 -5 -12 -11
-12 -42 0 -18 7 -18 6 -6 -9 7 -9 24 -17 38 -17 30 0 43 30 19 44 -10 6 -25
17 -34 24 -15 12 -12 13 17 8 29 -5 32 -4 21 9 -13 16 -42 20 -53 8z"/>
<path d="M3780 3070 c0 -5 5 -10 10 -10 6 0 10 5 10 10 0 6 -4 10 -10 10 -5 0
-10 -4 -10 -10z"/>
<path d="M2009 2818 c-3 -84 -3 -83 -29 -83 -20 0 -26 6 -28 28 -3 21 2 29 20
36 14 6 17 10 8 10 -22 1 -40 -19 -40 -45 0 -28 21 -45 54 -42 25 2 26 5 26
60 0 32 -2 58 -5 58 -3 0 -5 -10 -6 -22z"/>
<path d="M2693 2780 c0 -36 1 -57 4 -47 5 18 5 18 26 0 21 -19 16 -3 -9 27 -7
8 -14 31 -17 50 -2 19 -4 6 -4 -30z"/>
<path d="M3443 2780 c0 -36 2 -50 4 -32 2 17 2 47 0 65 -2 17 -4 3 -4 -33z"/>
<path d="M907 2781 c-19 -54 -22 -75 -6 -48 5 9 19 17 31 17 11 0 27 -8 34
-17 7 -10 4 8 -8 40 -11 31 -24 57 -27 57 -3 0 -14 -22 -24 -49z m39 -18 c-2
-3 -11 -3 -19 -1 -11 2 -12 9 -5 28 l10 25 9 -24 c5 -13 7 -26 5 -28z"/>
<path d="M998 2818 c-2 -6 -1 -29 2 -52 4 -31 10 -41 25 -43 16 -1 16 -1 3 3
-13 4 -18 16 -18 39 0 18 4 35 9 37 5 2 3 8 -4 15 -10 9 -15 9 -17 1z"/>
<path d="M1263 2775 c0 -33 2 -45 4 -27 2 18 2 45 0 60 -2 15 -4 0 -4 -33z"/>
<path d="M2380 2779 c0 -52 1 -55 26 -57 33 -3 54 14 54 42 0 26 -18 46 -39
45 -10 0 -7 -4 7 -10 18 -7 23 -15 20 -36 -2 -22 -8 -28 -28 -28 -23 0 -25 4
-26 43 -3 64 -14 64 -14 1z"/>
<path d="M1118 2773 c-2 -30 -7 -39 -25 -41 -17 -3 -24 3 -29 25 -9 44 -12 50
-13 25 -2 -40 17 -62 49 -60 28 2 30 5 30 45 0 53 -8 56 -12 6z"/>
<path d="M1168 2799 c-37 -21 -12 -87 29 -76 15 4 14 5 -4 6 -29 1 -40 38 -19
59 22 22 51 4 51 -31 0 -14 3 -29 8 -33 4 -4 7 11 7 33 0 34 -4 42 -22 47 -29
7 -30 7 -50 -5z"/>
<path d="M1303 2765 c0 -27 2 -38 4 -22 2 15 2 37 0 50 -2 12 -4 0 -4 -28z"/>
<path d="M1348 2803 c27 -5 27 -11 2 -43 -27 -34 -25 -40 13 -39 23 1 26 3 10
6 -27 5 -28 12 -8 39 22 30 18 44 -12 43 -24 -2 -25 -2 -5 -6z"/>
<path d="M1416 2794 c-19 -19 -20 -35 -3 -58 8 -11 21 -16 33 -13 17 4 17 5
-3 6 -29 1 -40 38 -19 59 22 22 51 4 51 -31 0 -14 3 -29 8 -33 4 -4 7 15 7 42
0 31 -3 44 -9 35 -6 -9 -11 -10 -15 -2 -10 16 -32 14 -50 -5z"/>
<path d="M1550 2803 c8 -3 22 -11 30 -17 13 -10 13 -9 1 7 -7 9 -21 17 -30 16
-13 0 -14 -1 -1 -6z"/>
<path d="M1658 2799 c18 -7 23 -15 20 -36 -2 -22 -8 -28 -28 -28 -21 0 -25 5
-25 32 0 18 -4 28 -8 24 -13 -13 -4 -53 16 -65 12 -8 22 -8 35 0 35 22 22 85
-17 83 -10 0 -8 -3 7 -10z"/>
<path d="M1726 2794 c-28 -27 -19 -40 24 -36 40 4 50 18 28 40 -16 16 -33 15
-52 -4z m52 -11 c2 -9 -7 -13 -28 -13 -28 0 -31 2 -20 15 15 18 41 16 48 -2z"/>
<path d="M1822 2798 c-13 -13 1 -38 21 -38 6 0 2 6 -9 14 -17 13 -18 15 -2 21
9 4 22 3 29 -1 8 -4 9 -3 5 4 -9 15 -29 15 -44 0z"/>
<path d="M2056 2789 c-9 -14 -12 -29 -7 -43 9 -22 47 -34 62 -19 5 5 -3 9 -18
8 -14 0 -28 6 -30 13 -3 8 7 12 31 12 39 0 45 10 20 34 -21 22 -40 20 -58 -5z
m54 -4 c11 -13 8 -15 -19 -15 -30 0 -39 9 -24 23 11 11 30 8 43 -8z"/>
<path d="M2202 2798 c-7 -7 -12 -21 -12 -33 0 -42 45 -60 71 -28 13 15 12 15
-7 3 -22 -14 -54 -8 -54 10 0 5 16 10 35 10 22 0 35 5 35 13 0 18 -21 37 -40
37 -9 0 -21 -5 -28 -12z m56 -15 c2 -9 -7 -13 -27 -13 -30 0 -39 9 -24 24 11
10 46 3 51 -11z"/>
<path d="M2528 2799 c18 -7 23 -15 20 -36 -2 -22 -8 -28 -28 -28 -21 0 -25 5
-25 32 0 18 -4 28 -8 24 -13 -13 -4 -53 16 -65 12 -8 22 -8 35 0 35 22 22 85
-17 83 -10 0 -8 -3 7 -10z"/>
<path d="M2596 2794 c-19 -18 -21 -45 -4 -62 39 -39 100 17 63 58 -22 24 -38
25 -59 4z m54 -9 c20 -24 3 -57 -28 -53 -30 3 -41 30 -22 53 16 19 34 19 50 0z"/>
<path d="M2720 2788 c-12 -22 -12 -22 6 -6 10 10 15 20 12 24 -4 3 -12 -5 -18
-18z"/>
<path d="M2771 2796 c-10 -11 -8 -17 11 -30 12 -9 27 -16 33 -16 5 1 -3 8 -18
16 -15 8 -25 19 -22 24 8 13 32 13 38 0 3 -6 4 -5 3 2 -4 19 -31 21 -45 4z"/>
<path d="M2920 2765 c0 -27 2 -46 4 -44 8 8 10 78 3 85 -4 4 -7 -14 -7 -41z"/>
<path d="M2962 2798 c9 -7 19 -29 21 -48 3 -26 4 -24 3 10 -1 36 -5 45 -21 48
-18 4 -19 3 -3 -10z"/>
<path d="M3032 2798 c-7 -7 -12 -25 -12 -40 0 -21 6 -29 25 -34 31 -8 55 10
55 40 0 26 -18 46 -40 46 -9 0 -21 -5 -28 -12z m46 -7 c8 -4 12 -19 10 -32 -4
-30 -51 -35 -56 -6 -8 39 15 58 46 38z"/>
<path d="M3170 2776 c-12 -37 -14 -38 -26 -21 -8 10 -14 14 -14 9 0 -6 6 -19
14 -29 13 -18 15 -17 30 20 9 21 15 43 13 49 -2 6 -10 -7 -17 -28z"/>
<path d="M3222 2798 c-7 -7 -12 -25 -12 -40 0 -21 6 -29 25 -34 31 -8 55 10
55 40 0 26 -18 46 -40 46 -9 0 -21 -5 -28 -12z m46 -7 c8 -4 12 -19 10 -32 -4
-30 -51 -35 -56 -6 -8 39 15 58 46 38z"/>
<path d="M3346 2796 c21 -15 30 -14 19 3 -3 6 -14 11 -23 11 -13 0 -13 -2 4
-14z"/>
<path d="M3512 2779 c6 -16 12 -28 14 -26 5 5 -13 57 -20 57 -3 0 0 -14 6 -31z"/>
<path d="M3566 2795 c-9 -26 -7 -32 5 -12 6 10 9 21 6 23 -2 3 -7 -2 -11 -11z"/>
<path d="M3600 2765 c0 -27 2 -46 4 -44 8 8 10 78 3 85 -4 4 -7 -14 -7 -41z"/>
<path d="M3666 2794 c-9 -8 -16 -23 -15 -32 0 -12 3 -10 9 6 5 12 17 25 26 29
23 9 48 -20 39 -47 -6 -17 -13 -21 -35 -18 -16 2 -27 1 -24 -4 12 -19 55 -8
66 17 9 21 8 28 -7 45 -22 24 -38 25 -59 4z"/>
<path d="M3764 2795 c-7 -17 3 -35 19 -34 9 0 9 2 0 6 -22 8 -15 36 7 30 11
-3 18 -1 14 4 -8 14 -34 11 -40 -6z"/>
<path d="M1517 2793 c-16 -16 -5 -52 22 -74 21 -16 26 -26 18 -31 -9 -6 -9 -8
0 -8 17 0 25 17 13 25 -8 5 -5 14 7 27 18 20 18 21 -3 8 -33 -20 -58 -6 -50
30 6 31 4 35 -7 23z"/>
<path d="M3311 2787 c-1 -10 9 -21 24 -27 33 -13 33 -34 -1 -27 -16 3 -22 1
-16 -5 15 -15 46 -5 50 14 2 12 -5 19 -22 24 -14 3 -27 13 -29 22 -4 15 -5 15
-6 -1z"/>
<path d="M3543 2744 c-15 -16 -16 -24 -4 -24 8 0 24 30 19 35 -2 2 -9 -3 -15
-11z"/>
<path d="M3806 2746 c6 -16 4 -18 -19 -14 -15 3 -24 1 -21 -3 7 -13 42 -11 50
2 3 6 1 16 -5 22 -9 9 -10 7 -5 -7z"/>
<path d="M1780 2741 c0 -9 -10 -12 -29 -9 -17 2 -28 1 -25 -4 7 -12 52 -10 59
3 4 6 4 13 1 16 -3 4 -6 1 -6 -6z"/>
<path d="M1817 2728 c2 -5 13 -8 23 -8 10 0 21 3 23 8 3 4 -8 7 -23 7 -15 0
-26 -3 -23 -7z"/>
<path d="M2767 2728 c2 -5 13 -8 23 -8 10 0 21 3 23 8 3 4 -8 7 -23 7 -15 0
-26 -3 -23 -7z"/>
<path d="M2841 2724 c0 -11 3 -14 6 -6 3 7 2 16 -1 19 -3 4 -6 -2 -5 -13z"/>
<path d="M2199 2572 c-7 -38 10 -92 29 -92 16 1 16 1 0 11 -22 13 -23 55 -2
67 14 8 13 10 -5 15 -11 3 -22 2 -22 -1z"/>
<path d="M915 2560 c-4 -6 -11 -8 -16 -5 -5 4 -8 -20 -8 -57 1 -35 4 -51 6
-37 3 23 9 27 35 25 40 -1 56 23 40 58 -12 26 -45 35 -57 16z m45 -15 c17 -21
3 -57 -22 -53 -30 4 -45 32 -29 52 17 20 35 20 51 1z"/>
<path d="M1000 2525 c0 -27 2 -46 4 -44 8 8 10 78 3 85 -4 4 -7 -14 -7 -41z"/>
<path d="M1073 2558 c-20 -25 -24 -42 -5 -19 25 30 62 22 62 -15 0 -30 -25
-42 -52 -25 -16 10 -19 10 -16 -1 6 -18 46 -22 64 -8 20 18 17 57 -5 70 -26
13 -36 13 -48 -2z"/>
<path d="M1161 2525 l1 -50 8 40 c5 22 4 44 -1 50 -5 5 -9 -11 -8 -40z"/>
<path d="M1200 2563 c21 -8 29 -24 31 -58 2 -26 3 -24 8 10 5 31 10 40 26 40
16 0 21 -9 26 -40 l6 -40 2 36 c1 45 -21 69 -49 51 -12 -7 -21 -8 -25 -2 -3 6
-14 10 -23 9 -14 0 -14 -2 -2 -6z"/>
<path d="M1338 2559 c-22 -12 -23 -52 -3 -69 8 -7 25 -10 39 -6 33 8 43 42 20
67 -19 21 -31 23 -56 8z m53 -15 c17 -21 0 -49 -32 -49 -27 0 -37 28 -19 50
16 19 34 19 51 -1z"/>
<path d="M1437 2552 c-24 -26 -21 -38 13 -72 17 -17 25 -30 19 -30 -7 0 -10
-3 -6 -6 12 -12 28 7 17 21 -8 9 -6 14 5 19 8 3 15 11 14 18 0 10 -2 10 -6 1
-8 -22 -51 -15 -58 8 -10 32 19 58 45 41 11 -7 20 -8 20 -3 0 8 -23 21 -39 21
-4 0 -15 -8 -24 -18z"/>
<path d="M1536 2554 c-19 -18 -20 -28 -6 -55 20 -37 80 -15 80 30 0 14 -29 41
-45 41 -7 0 -21 -7 -29 -16z m54 -9 c18 -21 3 -55 -25 -55 -15 0 -26 7 -30 20
-7 23 10 50 30 50 7 0 18 -7 25 -15z"/>
<path d="M1639 2553 c-13 -15 -12 -15 8 -2 20 12 25 11 40 -4 16 -16 15 -17
-25 -17 -45 0 -47 -2 -32 -31 11 -19 54 -27 64 -11 3 5 -8 6 -25 4 -22 -3 -29
0 -29 12 0 12 9 16 35 16 38 0 44 10 19 34 -20 21 -38 20 -55 -1z"/>
<path d="M1737 2563 c-14 -14 -6 -34 18 -43 33 -13 33 -34 -1 -27 -16 3 -22 1
-16 -5 14 -14 47 -5 47 12 0 8 -10 19 -22 25 -29 12 -31 39 -3 32 11 -3 18 -1
14 4 -6 11 -28 12 -37 2z"/>
<path d="M1898 2560 c32 -13 27 -30 -9 -30 -24 0 -30 4 -25 16 3 8 2 12 -4 9
-14 -9 -13 -48 2 -63 17 -17 43 -15 59 5 13 15 12 15 -7 3 -22 -14 -54 -8 -54
10 0 5 16 10 35 10 22 0 35 5 35 13 0 18 -21 37 -39 36 -10 0 -7 -4 7 -9z"/>
<path d="M2006 2554 c-19 -18 -20 -28 -6 -55 19 -35 80 -18 80 22 0 21 -26 49
-45 49 -7 0 -21 -7 -29 -16z m54 -9 c18 -21 3 -55 -25 -55 -15 0 -26 7 -30 20
-7 23 10 50 30 50 7 0 18 -7 25 -15z"/>
<path d="M2104 2530 c1 -40 4 -45 26 -47 22 -2 23 -2 5 6 -13 5 -22 21 -26 47
l-7 39 2 -45z"/>
<path d="M2262 2520 c1 -40 2 -41 5 -10 2 19 11 40 20 47 13 10 13 12 -6 10
-18 -1 -21 -7 -19 -47z"/>
<path d="M2326 2554 c-19 -18 -20 -28 -6 -55 20 -37 80 -15 80 30 0 14 -29 41
-45 41 -7 0 -21 -7 -29 -16z m54 -9 c18 -21 3 -55 -25 -55 -15 0 -26 7 -30 20
-7 23 10 50 30 50 7 0 18 -7 25 -15z"/>
<path d="M2427 2563 c-14 -14 -6 -34 18 -43 33 -13 33 -34 -1 -27 -16 3 -22 1
-16 -5 14 -14 47 -5 47 12 0 8 -10 19 -22 25 -29 12 -31 39 -3 32 11 -3 18 -1
14 4 -6 11 -28 12 -37 2z"/>
<path d="M2163 2520 c0 -25 2 -35 4 -22 2 12 2 32 0 45 -2 12 -4 2 -4 -23z"/>
<path d="M1918 2183 c474 -2 1250 -2 1725 0 474 1 86 2 -863 2 -949 0 -1337
-1 -862 -2z"/>
<path d="M1005 2168 c-52 -28 -115 -106 -115 -140 0 -7 9 5 19 27 22 48 63 88
111 109 19 8 28 15 20 15 -8 0 -24 -5 -35 -11z"/>
<path d="M4540 2164 c48 -21 89 -61 111 -109 10 -22 19 -34 19 -27 1 48 -104
153 -152 152 -7 -1 3 -8 22 -16z"/>
<path d="M1144 2037 c-3 -8 -4 -43 -2 -78 l3 -64 95 0 95 0 0 75 0 75 -93 3
c-72 2 -94 0 -98 -11z m166 -11 c0 -2 -16 -14 -35 -26 l-35 -22 -35 22 c-19
12 -35 24 -35 26 0 2 32 4 70 4 39 0 70 -2 70 -4z m-97 -48 c27 -19 27 -19 55
0 53 36 52 37 52 -17 l0 -51 -80 0 -80 0 0 51 c0 54 -1 53 53 17z"/>
<path d="M1770 2011 c0 -14 -5 -18 -20 -14 -26 7 -50 -13 -50 -42 0 -30 19
-44 58 -43 l32 1 0 59 c0 32 -4 58 -10 58 -5 0 -10 -9 -10 -19z m-12 -30 c20
-12 11 -56 -12 -56 -27 0 -43 29 -27 49 15 18 21 19 39 7z"/>
<path d="M3093 1970 c0 -36 2 -50 4 -32 2 17 2 47 0 65 -2 17 -4 3 -4 -33z"/>
<path d="M1488 2009 c-22 -13 -24 -62 -2 -83 20 -20 58 -21 74 -1 15 18 -1 20
-18 3 -15 -15 -62 5 -62 27 0 42 47 74 65 45 3 -5 11 -10 17 -10 7 0 6 6 -2
15 -14 17 -47 19 -72 4z"/>
<path d="M2008 2008 c-8 -22 7 -91 20 -94 7 -1 8 0 2 3 -12 6 -13 70 -1 75 5
2 3 8 -4 15 -10 9 -15 9 -17 1z"/>
<path d="M883 1970 c0 -25 2 -35 4 -22 2 12 2 32 0 45 -2 12 -4 2 -4 -23z"/>
<path d="M4673 1970 c0 -25 2 -35 4 -22 2 12 2 32 0 45 -2 12 -4 2 -4 -23z"/>
<path d="M1604 1985 c-15 -11 -17 -18 -9 -42 9 -24 16 -28 48 -28 37 -1 37 0
37 40 0 37 -2 40 -29 42 -16 1 -37 -4 -47 -12z m50 -11 c18 -18 6 -54 -19 -54
-21 0 -35 31 -24 52 12 22 23 23 43 2z"/>
<path d="M1822 1988 c-16 -16 -15 -53 1 -66 7 -6 27 -10 45 -10 32 1 33 2 30
41 -3 37 -6 41 -33 44 -17 2 -36 -2 -43 -9z m46 -7 c20 -12 11 -56 -12 -56
-27 0 -43 29 -27 49 15 18 21 19 39 7z"/>
<path d="M1927 1994 c-14 -15 -6 -35 18 -44 26 -10 34 -30 12 -30 -7 0 -19 6
-26 13 -11 10 -13 9 -9 -3 7 -21 52 -19 56 2 2 12 -6 21 -24 28 -20 8 -24 14
-16 22 8 8 16 7 28 -3 15 -12 17 -12 12 1 -5 16 -39 25 -51 14z"/>
<path d="M2078 1992 c-14 -2 -18 -13 -18 -43 0 -21 5 -39 10 -39 6 0 10 15 10
34 0 19 6 36 13 39 17 6 5 14 -15 9z"/>
<path d="M2132 1988 c-7 -7 -12 -21 -12 -33 0 -42 45 -60 71 -28 13 15 12 15
-7 3 -22 -14 -54 -8 -54 10 0 5 16 10 35 10 22 0 35 5 35 13 0 18 -21 37 -40
37 -9 0 -21 -5 -28 -12z m48 -13 c11 -13 8 -15 -20 -15 -28 0 -31 2 -20 15 7
8 16 15 20 15 4 0 13 -7 20 -15z"/>
<path d="M2273 1993 c-22 -8 -14 -33 12 -43 26 -10 34 -30 12 -30 -7 0 -19 6
-26 13 -11 10 -13 9 -9 -3 6 -20 35 -25 53 -10 18 15 11 28 -23 41 -19 7 -22
13 -14 21 8 8 16 7 28 -3 15 -12 17 -12 12 1 -5 16 -25 22 -45 13z"/>
<path d="M2356 1984 c-19 -19 -20 -35 -3 -58 15 -21 58 -18 65 4 5 13 3 13
-11 1 -18 -14 -47 -9 -47 9 0 5 16 10 35 10 19 0 35 4 35 9 0 14 -30 41 -45
41 -7 0 -21 -7 -29 -16z m52 -11 c2 -8 -6 -13 -22 -13 -25 0 -33 10 -19 24 10
10 36 3 41 -11z"/>
<path d="M2454 1960 c1 -44 2 -45 34 -46 32 -1 32 -1 31 45 l-2 46 -6 -40 c-5
-31 -10 -40 -26 -40 -16 0 -21 9 -26 40 l-7 40 2 -45z"/>
<path d="M2602 1988 c-27 -27 -7 -78 29 -78 10 0 20 4 23 8 2 4 -7 8 -21 7
-14 0 -28 6 -30 13 -3 8 7 12 31 12 40 0 50 22 17 40 -25 13 -34 13 -49 -2z
m48 -13 c11 -13 8 -15 -19 -15 -31 0 -42 14 -18 23 20 9 24 8 37 -8z"/>
<path d="M2782 1950 c1 -42 2 -43 5 -8 4 35 24 55 44 42 5 -3 9 -22 10 -42 l1
-37 8 33 c4 19 13 39 19 45 16 16 39 -9 44 -46 4 -32 4 -32 5 4 2 45 -20 69
-48 51 -12 -7 -21 -8 -25 -2 -3 5 -19 8 -35 7 -29 -2 -30 -4 -28 -47z"/>
<path d="M2958 1989 c-21 -12 -24 -52 -5 -67 7 -6 27 -10 45 -10 30 1 32 3 32
40 0 24 -5 38 -13 38 -7 0 -12 -13 -12 -32 0 -26 -4 -33 -19 -33 -10 0 -24 8
-30 18 -9 15 -7 22 13 38 25 20 18 25 -11 8z"/>
<path d="M3053 1950 c0 -25 2 -35 4 -22 2 12 2 32 0 45 -2 12 -4 2 -4 -23z"/>
<path d="M2703 1963 c9 -2 25 -2 35 0 9 3 1 5 -18 5 -19 0 -27 -2 -17 -5z"/>
<path d="M890 1912 c-1 -48 104 -153 152 -152 7 0 -5 9 -27 19 -48 22 -88 63
-109 111 -8 19 -15 29 -16 22z"/>
<path d="M4656 1896 c-9 -38 -65 -97 -111 -117 -22 -10 -34 -19 -27 -19 51 -1
175 130 149 156 -2 3 -7 -6 -11 -20z"/>
<path d="M1918 1753 c474 -2 1250 -2 1725 0 474 1 86 2 -863 2 -949 0 -1337
-1 -862 -2z"/>
<path d="M1543 1160 c0 -36 2 -50 4 -32 2 17 2 47 0 65 -2 17 -4 3 -4 -33z"/>
<path d="M902 1198 c-17 -17 -15 -64 4 -82 22 -23 60 -20 78 6 23 32 20 38
-16 37 -24 -1 -27 -3 -10 -6 26 -5 28 -16 7 -33 -30 -25 -74 14 -59 53 8 22
42 31 60 16 8 -6 18 -9 21 -5 11 10 -18 26 -47 26 -15 0 -31 -5 -38 -12z"/>
<path d="M1447 1163 c-20 -56 -21 -71 -5 -55 16 16 55 15 61 0 2 -7 7 -10 11
-7 9 8 -26 101 -39 106 -6 2 -19 -18 -28 -44z m43 -15 c0 -5 -7 -8 -15 -8 -15
0 -20 21 -8 33 7 7 23 -11 23 -25z"/>
<path d="M1022 1140 c1 -37 2 -39 5 -12 3 18 11 36 19 39 21 8 17 22 -6 20
-17 -1 -20 -8 -18 -47z"/>
<path d="M1084 1150 c1 -44 2 -45 34 -46 32 -1 32 -1 31 45 l-2 46 -6 -40 c-5
-31 -10 -40 -26 -40 -16 0 -21 9 -26 40 l-7 40 2 -45z"/>
<path d="M1181 1120 c1 -36 4 -53 6 -39 3 22 8 25 33 21 32 -5 55 25 45 58 -7
21 -11 22 -57 24 -28 2 -28 2 -27 -64z m69 24 c0 -29 -24 -41 -45 -24 -19 16
-19 25 0 44 21 20 45 9 45 -20z"/>
<path d="M1288 1164 c-14 -31 -1 -57 31 -62 28 -4 51 14 51 42 0 50 -62 65
-82 20z m60 -23 c-4 -35 -41 -37 -46 -2 -4 26 13 42 35 34 8 -3 13 -16 11 -32z"/>
<path d="M1583 1150 c2 -45 2 -45 40 -47 l37 -1 0 44 c0 24 -4 44 -10 44 -5 0
-10 -16 -10 -35 0 -23 -6 -38 -15 -42 -21 -7 -27 0 -36 44 l-7 38 1 -45z"/>
<path d="M1680 1144 c0 -24 5 -44 10 -44 6 0 10 16 10 35 0 19 5 35 10 35 19
0 10 16 -10 17 -17 2 -20 -4 -20 -43z"/>
<path d="M1751 1176 c-7 -8 -11 -27 -9 -43 3 -26 7 -28 46 -29 l43 -2 -3 41
c-3 37 -6 41 -34 44 -19 2 -36 -2 -43 -11z m53 -19 c16 -25 -16 -56 -38 -37
-19 15 -20 32 -4 48 15 15 28 11 42 -11z"/>
</g>
</svg>
